<svg width="120" height="98" viewBox="0 0 120 98" fill="none" xmlns="http://www.w3.org/2000/svg">
<path d="M1.7627 57.3345C1.7627 57.3345 1.73287 57.0959 1.73287 56.8573C1.73287 56.6186 1.73287 56.4993 1.70304 56.4396C1.64338 56.1413 1.43457 55.8729 1.04679 55.6641C0.62917 55.3956 0.360702 54.9482 0.211553 54.3516C0.0922341 53.8445 0.122064 53.4567 0.271213 53.1285C0.330872 53.0092 0.390532 52.9794 0.450191 52.9496C0.539681 52.9496 0.59934 52.9794 0.688829 53.1285C0.748489 53.2777 0.808149 53.397 0.867808 53.5163C0.927468 53.6356 0.957297 53.7251 0.957297 53.755C1.07662 54.1427 1.22577 54.441 1.31525 54.6499C1.43457 54.8587 1.55389 54.9183 1.70304 54.8885C1.79253 54.8885 1.85219 54.7692 1.85219 54.5604C1.85219 54.3814 1.85219 54.2322 1.88202 54.1726C2.061 52.5916 2.21015 51.1299 2.32947 49.7279C2.44879 48.3558 2.53828 47.4012 2.59793 46.9239C2.92606 43.3742 3.28402 40.1228 3.67181 37.1696L4.95449 27.8627C5.22295 26.4309 5.49142 24.6411 5.81955 22.4934C5.84938 22.2846 5.93887 22.1056 6.02836 21.9863C6.11785 21.8669 6.20734 21.7774 6.29683 21.7774C6.41614 21.7774 6.50563 21.7774 6.56529 21.8968C6.62495 22.0161 6.68461 22.1354 6.68461 22.3144C6.68461 23.1794 6.65478 23.8059 6.59512 24.1937C6.35649 25.9238 5.9687 28.5488 5.52125 32.0091L5.34227 33.4111C5.28261 33.7988 5.19312 34.4849 5.07381 35.4991C4.92466 36.5134 4.83517 37.4082 4.74568 38.1838C4.74568 38.4821 4.68602 38.7506 4.62636 39.0489C4.5667 39.3173 4.53687 39.556 4.50704 39.7648C4.38772 40.4807 4.29823 41.0176 4.2684 41.4054C4.23857 41.7634 4.2684 41.9722 4.38772 42.002C4.44738 42.002 4.62636 41.7037 4.865 41.1071C5.13346 40.5105 5.40193 39.7946 5.75989 38.9892C5.84938 38.7506 6.17751 37.9154 6.71444 36.5432C7.25138 35.171 7.78831 33.9182 8.35508 32.7846C9.75708 29.8911 11.4872 27.0871 13.5753 24.3726C15.6634 21.6581 17.7216 19.6894 19.7799 18.3769C20.3466 18.0189 20.8836 17.7803 21.3609 17.6908C21.9575 17.5416 22.4646 17.6013 22.8523 17.8399C23.2401 18.0786 23.5086 18.4663 23.6279 19.0033C23.8367 19.8982 23.6279 21.0019 23.0313 22.2846C22.4646 23.5672 21.7785 24.7903 20.9731 25.9536C20.1677 27.117 19.1535 28.4891 17.9304 30.0403C17.3637 30.786 16.2003 32.1284 14.4404 34.127L13.9631 34.6639L13.098 35.5588L12.2329 36.4835C12.2329 36.4835 12.0838 36.6625 12.1136 36.7222C12.1136 36.752 12.2031 36.7222 12.3523 36.6625C13.6648 35.9168 14.5298 35.4395 14.9176 35.2008C17.0355 34.0971 18.885 33.2022 20.4958 32.4863C22.1066 31.7704 23.7771 31.1738 25.4774 30.6965C25.6563 30.6369 25.9248 30.5474 26.3126 30.4877C27.9831 30.0999 29.4149 30.0999 30.6081 30.4877C31.7714 30.8755 32.5172 31.6511 32.7558 32.8145C32.8453 33.2619 32.8751 33.7988 32.8155 34.4253C32.726 35.4693 32.3084 36.573 31.5925 37.796C30.3396 39.9139 28.7288 42.0617 26.76 44.2691C24.7913 46.4467 22.733 48.3856 20.6151 50.1157C18.3481 51.9353 16.26 53.3075 14.3509 54.2024C12.054 55.2464 9.99572 55.9922 8.1761 56.4098C6.50563 56.7976 5.0738 56.8871 3.85078 56.7081C3.55249 56.6783 3.37351 56.6484 3.31385 56.6783C3.22436 56.6783 3.1647 56.7678 3.13487 56.8573C3.07521 56.9468 3.04538 57.1257 2.98572 57.3644C2.98572 57.424 2.98572 57.4837 2.95589 57.5732C2.95589 57.6627 2.89623 57.7522 2.8664 57.8118C2.80674 57.8715 2.71725 57.9013 2.62776 57.9013C2.21015 57.9013 1.94168 57.7521 1.88202 57.3942L1.7627 57.3345ZM25.9546 43.4637C27.7146 41.4949 29.1763 39.4963 30.3396 37.4977C31.503 35.4693 31.9504 33.8883 31.7118 32.7548C31.5328 31.8897 30.9064 31.3826 29.8623 31.2335C28.9078 31.144 27.7743 31.2335 26.4319 31.5318C24.7316 31.9196 22.8225 32.5758 20.7046 33.5304C18.6165 34.4551 16.5284 35.529 14.4404 36.752C13.456 37.2591 12.0838 38.0943 10.3537 39.2279C8.62355 40.3614 7.16189 41.4054 5.99853 42.2705C5.73006 42.4793 5.52125 42.7776 5.40193 43.1654C5.01415 44.3884 4.62636 45.7606 4.2684 47.2521C3.88061 48.9822 3.58232 50.414 3.37351 51.5774C3.1647 52.7407 3.07521 53.9041 3.07521 55.0973C3.07521 55.3658 3.07521 55.5447 3.07521 55.6342C3.07521 55.7536 3.1647 55.8132 3.28402 55.843C3.40334 55.843 3.55249 55.9027 3.7613 55.9027C4.71585 55.9922 5.90904 55.843 7.31104 55.5448C8.62355 55.2465 9.99572 54.799 11.4275 54.2322C12.8594 53.6655 14.1421 53.0689 15.2756 52.4126C18.885 50.3544 22.4347 47.3714 25.9248 43.4339L25.9546 43.4637ZM8.32525 38.6909C8.95168 38.154 9.63776 37.4679 10.4133 36.6327L11.2187 35.8571C12.6506 34.4253 14.0526 32.9338 15.4546 31.323C16.8566 29.7122 18.0498 28.2207 19.064 26.7888C20.0782 25.357 20.9432 24.0445 21.5995 22.8215C22.2558 21.5985 22.6435 20.5246 22.733 19.5999C22.733 19.4209 22.733 19.2419 22.733 19.1226C22.6734 18.884 22.554 18.7348 22.3452 18.6453C22.1364 18.5558 21.8978 18.5558 21.5697 18.6453C21.0029 18.7646 20.2273 19.2419 19.2429 20.0473C18.2586 20.8527 17.3935 21.6581 16.5881 22.4934C14.7685 24.4025 13.0384 26.7888 11.3381 29.6227C9.63776 32.4565 8.29542 35.2307 7.25138 37.9154C6.92325 38.8102 6.65478 39.4665 6.53546 39.8841C6.4758 40.0034 6.44597 40.1228 6.4758 40.1824C6.4758 40.2719 6.59512 40.2421 6.80393 40.1228L8.35508 38.7208L8.32525 38.6909Z" fill="#231F20"/>
<path d="M2.47845 57.9911C1.88185 57.9911 1.67304 57.6629 1.61338 57.3647C1.61338 57.3647 1.58355 57.0664 1.58355 56.8575C1.58355 56.7681 1.58355 56.5294 1.58355 56.4698C1.52389 56.2013 1.34492 55.9925 1.01679 55.8135C0.569342 55.5152 0.241214 55.0379 0.0920654 54.3817C-0.0272536 53.8746 0.00257615 53.4271 0.151725 53.0692C0.271044 52.92 0.330704 52.8305 0.420193 52.8305C0.479852 52.8305 0.688661 52.8007 0.80798 53.099C0.867639 53.2481 0.927299 53.3675 0.986958 53.5166C1.04662 53.6359 1.07645 53.7254 1.07645 53.7851C1.19577 54.143 1.31509 54.4413 1.4344 54.6501C1.55372 54.8291 1.64321 54.8589 1.67304 54.8291C1.67304 54.8291 1.67304 54.7993 1.70287 54.6501C1.70287 54.4413 1.70287 54.322 1.7327 54.2325C1.91168 52.741 2.06083 51.2495 2.18015 49.8177C2.29947 48.4455 2.38896 47.491 2.44862 47.0137C2.77674 43.464 3.1347 40.1827 3.52249 37.2296L4.80517 27.9227C5.07364 26.4908 5.3421 24.7309 5.67023 22.5533C5.72989 22.3147 5.78955 22.1357 5.90887 21.9865C6.02819 21.8374 6.14751 21.7479 6.26683 21.7181C6.41598 21.6882 6.56512 21.7181 6.68444 21.8672C6.77393 21.9865 6.83359 22.1655 6.83359 22.3743C6.83359 23.2096 6.80376 23.836 6.7441 24.2536C6.50547 25.8048 6.14751 28.3999 5.67023 32.069L5.49125 33.471C5.43159 33.8588 5.3421 34.5449 5.22278 35.5591C5.07364 36.6031 4.98415 37.498 4.89466 38.2438C4.89466 38.5421 4.835 38.8404 4.77534 39.1088C4.71568 39.3773 4.68585 39.6159 4.68585 39.7949C4.56653 40.481 4.47704 41.0478 4.44721 41.4356C4.44721 41.5847 4.44721 41.6742 4.44721 41.7338C4.50687 41.6145 4.62619 41.4057 4.77534 41.0478C5.04381 40.4512 5.31227 39.7353 5.67023 38.9298C5.75972 38.6614 6.08785 37.856 6.62478 36.4838C7.13189 35.1415 7.69866 33.8588 8.29525 32.6954C9.69725 29.8019 11.4572 26.9681 13.5155 24.2834C15.5737 21.5988 17.6916 19.5703 19.7499 18.2578C20.3465 17.8999 20.8834 17.6612 21.3905 17.5419C22.0169 17.3928 22.5539 17.4524 23.0013 17.7209C23.4488 17.9894 23.7172 18.407 23.8664 18.9737C24.0752 19.8985 23.8664 21.032 23.24 22.3743C22.6732 23.657 21.9871 24.88 21.1519 26.0732C20.3763 27.1769 19.3919 28.5193 18.1092 30.1599C17.5126 30.9056 16.3493 32.2778 14.6192 34.2466L14.1419 34.7835L13.2768 35.7082L12.6206 36.4242C13.7839 35.7679 14.5297 35.3204 14.9175 35.1116C17.0055 34.0079 18.8848 33.0832 20.4956 32.3971C22.1064 31.6812 23.7769 31.0846 25.507 30.6073C25.686 30.5477 25.9843 30.4582 26.3423 30.3687C28.0426 29.9809 29.5042 29.9809 30.6974 30.3687C31.9204 30.7863 32.696 31.5917 32.9645 32.8147C33.0838 33.2622 33.0838 33.7991 33.0241 34.4554C32.9048 35.4994 32.517 36.6628 31.7713 37.8858C30.5184 40.0037 28.9076 42.1813 26.9389 44.3589C24.9701 46.5364 22.882 48.5052 20.7641 50.2353C18.497 52.0549 16.3791 53.4569 14.47 54.322C12.1731 55.3959 10.085 56.1118 8.26542 56.5294C6.59495 56.9172 5.1333 57.0067 3.88045 56.8277C3.52249 56.7681 3.40317 56.7681 3.37334 56.7681C3.34351 56.7681 3.31368 56.7979 3.28385 56.8575C3.25402 56.947 3.19436 57.0962 3.1347 57.3348C3.1347 57.3945 3.1347 57.4541 3.10487 57.5436C3.10487 57.6629 3.04521 57.7524 2.95572 57.8419C2.86623 57.9314 2.74691 57.9612 2.56794 57.9612L2.47845 57.9911ZM1.91168 57.305C1.94151 57.484 2.06083 57.6928 2.47845 57.6928C2.56794 57.6928 2.6276 57.6928 2.65743 57.6629C2.65743 57.6331 2.71708 57.5735 2.71708 57.5138C2.71708 57.3945 2.71708 57.3348 2.77674 57.2752C2.8364 57.0067 2.89606 56.8575 2.92589 56.7382C2.98555 56.6189 3.07504 56.4996 3.22419 56.4698C3.28385 56.4698 3.40317 56.4698 3.82079 56.4996C5.01398 56.6786 6.47564 56.5592 8.11627 56.2013C9.90606 55.8135 11.9643 55.0678 14.2612 53.9939C16.1703 53.1288 18.2584 51.7566 20.4956 49.937C22.6135 48.2367 24.6718 46.268 26.6107 44.1202C28.5795 41.9427 30.1903 39.7651 31.4133 37.677C32.0994 36.4838 32.517 35.3801 32.6065 34.3659C32.6662 33.7395 32.6363 33.2324 32.5468 32.8147C32.2784 31.6812 31.6221 30.9653 30.4886 30.5775C29.3551 30.2196 27.9232 30.2196 26.2826 30.5775C25.9843 30.6372 25.6562 30.7267 25.4772 30.7863C23.7471 31.2636 22.0766 31.8602 20.4956 32.5761C18.8848 33.292 17.0055 34.1869 14.9175 35.2906C14.5297 35.5293 13.6646 36.0065 12.3521 36.7523C12.2029 36.8418 12.0836 36.8716 12.024 36.8418H11.9643L11.9047 36.7523C11.845 36.633 11.9643 36.4838 12.0538 36.3645L12.9189 35.4398L13.7839 34.5449L14.2612 34.0079C15.9913 32.069 17.1547 30.6968 17.7513 29.9213C19.034 28.2806 20.0183 26.9383 20.7939 25.8346C21.5993 24.6712 22.2854 23.4482 22.8522 22.1954C23.4488 20.9425 23.6278 19.8388 23.4488 19.0036C23.3295 18.4965 23.0908 18.1683 22.7329 17.9595C22.3749 17.7507 21.8976 17.6911 21.3309 17.8402C20.8536 17.9595 20.3465 18.1683 19.7797 18.5263C17.7513 19.809 15.6632 21.8076 13.6348 24.4922C11.5765 27.1769 9.8464 29.9809 8.4444 32.8744C7.87763 34.0378 7.31087 35.2906 6.80376 36.633C6.26683 38.0051 5.96853 38.8105 5.84921 39.079C5.52108 39.8844 5.22278 40.6003 4.95432 41.2267C4.56653 42.1813 4.44721 42.2111 4.32789 42.2111C4.02959 42.1515 4.05942 41.6742 4.08925 41.4654C4.11908 41.0776 4.20857 40.5108 4.32789 39.8247C4.32789 39.6159 4.38755 39.3773 4.44721 39.1088C4.50687 38.8404 4.5367 38.5719 4.56653 38.2736C4.62619 37.5279 4.74551 36.633 4.89466 35.5889C5.04381 34.5747 5.1333 33.8886 5.16313 33.5008L5.3421 32.0988C5.84921 28.4298 6.20717 25.8346 6.41598 24.2834C6.47564 23.8956 6.50547 23.2692 6.50547 22.434C6.50547 22.2848 6.50547 22.1954 6.41598 22.1059C6.35632 22.0462 6.32649 22.0462 6.29666 22.0462C6.26683 22.0462 6.20717 22.076 6.11768 22.1954C6.02819 22.3147 5.96853 22.434 5.9387 22.6428C5.61057 24.8502 5.3421 26.6102 5.07364 28.0122L3.79096 37.319C3.40317 40.2424 3.01538 43.5236 2.71708 47.0734C2.65743 47.5507 2.59777 48.5052 2.44862 49.8774C2.3293 51.339 2.15032 52.8305 2.00117 54.322C2.00117 54.3817 2.00117 54.5308 1.97134 54.7098C1.97134 54.9783 1.85202 55.1274 1.70287 55.1572C1.52389 55.1572 1.34492 55.1572 1.13611 54.8291C1.01679 54.6203 0.897469 54.322 0.74832 53.9044C0.74832 53.8447 0.71849 53.7851 0.658831 53.6658C0.599171 53.5464 0.539512 53.3973 0.479852 53.278C0.479852 53.2183 0.420193 53.1885 0.420193 53.1885C0.420193 53.1885 0.420193 53.2183 0.360533 53.278C0.241214 53.5464 0.211385 53.9342 0.330704 54.3817C0.450023 54.9484 0.718491 55.3661 1.10628 55.6047C1.49406 55.8433 1.7327 56.1118 1.82219 56.4698C1.82219 56.5294 1.82219 56.6487 1.85202 56.9172C1.85202 57.0962 1.85202 57.2752 1.88185 57.3647L1.91168 57.305ZM4.32789 56.082C4.11908 56.082 3.94011 56.082 3.7313 56.082C3.52249 56.082 3.37334 56.0521 3.22419 55.9925C3.04521 55.9626 2.92589 55.8433 2.89606 55.6643C2.89606 55.5749 2.89606 55.3959 2.89606 55.0976C2.89606 53.9342 2.98555 52.741 3.19436 51.5478C3.40317 50.3845 3.70147 48.9825 4.08925 47.2225C4.44721 45.7609 4.80517 44.3589 5.22278 43.106C5.37193 42.6586 5.58074 42.3304 5.87904 42.1216C7.0424 41.2267 8.47423 40.2424 10.2342 39.0492C12.024 37.8858 13.3663 37.0506 14.3209 36.5733C16.3791 35.3801 18.497 34.2764 20.5851 33.3517C22.6732 32.427 24.6121 31.7409 26.3423 31.3531C27.6846 31.0548 28.848 30.9355 29.8025 31.0548C30.9062 31.2338 31.5923 31.8005 31.8011 32.6954C32.0696 33.8886 31.6221 35.4994 30.4289 37.5577C29.2656 39.5563 27.8039 41.5549 26.044 43.5535C22.5539 47.491 18.9445 50.5038 15.3649 52.5621C14.2612 53.1885 12.9487 53.8149 11.5169 54.3817C10.0552 54.9484 8.68304 55.3959 7.37053 55.6942C6.20717 55.9626 5.22278 56.082 4.35772 56.082H4.32789ZM29.0866 31.3233C28.311 31.3233 27.4161 31.4426 26.4317 31.6514C24.7314 32.0392 22.8223 32.6954 20.7343 33.6202C18.6462 34.5449 16.5581 35.6187 14.4998 36.8418C13.5453 37.3489 12.203 38.1543 10.4132 39.3176C8.65321 40.481 7.22138 41.4952 6.05802 42.3603C5.81938 42.5393 5.6404 42.8077 5.52108 43.1955C5.1333 44.4484 4.74551 45.8205 4.38755 47.2822C3.99976 49.0421 3.70147 50.4441 3.49266 51.6075C3.28385 52.7709 3.19436 53.9342 3.19436 55.0976C3.19436 55.4257 3.19436 55.545 3.19436 55.6047C3.19436 55.6345 3.19436 55.6942 3.28385 55.6942C3.40317 55.724 3.58215 55.7538 3.76113 55.7538C4.68585 55.8135 5.87904 55.724 7.28104 55.3959C8.59355 55.0976 9.93589 54.68 11.3975 54.1132C12.8294 53.5464 14.1121 52.92 15.2158 52.2936C18.7953 50.2652 22.3451 47.2524 25.8351 43.3447C27.5951 41.3759 29.0568 39.3773 30.1903 37.4085C31.3238 35.4398 31.8011 33.8588 31.5326 32.7551C31.3537 31.9497 30.7869 31.5022 29.8025 31.3531C29.5639 31.3531 29.3252 31.3233 29.0866 31.3233ZM6.47564 40.3915C6.47564 40.3915 6.41598 40.3915 6.38615 40.3915C6.32649 40.3915 6.26683 40.302 6.26683 40.2424C6.26683 40.1529 6.26683 40.0037 6.35632 39.8546C6.47564 39.4668 6.71427 38.8404 7.07223 37.8858C8.08644 35.2011 9.45861 32.3971 11.1589 29.5633C12.8294 26.7295 14.6192 24.3431 16.4089 22.4042C17.2442 21.5391 18.1391 20.7337 19.0936 19.9283C20.1078 19.0931 20.8834 18.6456 21.48 18.4965C21.838 18.407 22.1363 18.4368 22.3451 18.5263C22.5837 18.6456 22.7329 18.8246 22.8223 19.1229C22.8522 19.272 22.8522 19.4212 22.8223 19.63C22.703 20.5845 22.3152 21.6882 21.659 22.9113C21.0027 24.1045 20.1675 25.4468 19.1235 26.8786C18.1092 28.3105 16.8862 29.8318 15.5141 31.4128C14.1121 33.0236 12.6802 34.5449 11.2782 35.9469L10.4728 36.7224C9.66742 37.5577 8.98134 38.2438 8.38474 38.7807L6.83359 40.1827C6.68444 40.302 6.56512 40.3319 6.47564 40.3319V40.3915ZM21.8976 18.7351C21.8976 18.7351 21.659 18.7351 21.5397 18.7649C21.0027 18.8842 20.2272 19.3615 19.2726 20.1371C18.3479 20.9127 17.453 21.7479 16.6178 22.5831C14.828 24.4922 13.068 26.8786 11.3975 29.6826C9.72708 32.4866 8.35491 35.2906 7.3407 37.9753C6.98274 38.9299 6.7441 39.5563 6.62478 39.9441C6.62478 39.9739 6.62478 40.0037 6.59495 40.0336C6.59495 40.0336 6.62478 40.0336 6.65461 40.0037L8.20576 38.6316C8.80236 38.0946 9.48844 37.4384 10.2938 36.5733L11.0992 35.7977C12.5012 34.3957 13.9331 32.8744 15.3351 31.2636C16.7072 29.6826 17.9303 28.1613 18.9146 26.7295C19.9289 25.2976 20.7939 23.9851 21.4203 22.7919C22.0766 21.5988 22.4346 20.5249 22.5539 19.6002C22.5539 19.4212 22.5539 19.272 22.5539 19.1825C22.524 19.0036 22.4047 18.8544 22.2556 18.7948C22.1661 18.7649 22.0468 18.7351 21.9275 18.7351H21.8976Z" fill="#231F20"/>
<path d="M38.1248 42.8673C37.8265 42.927 37.5282 42.9568 37.2001 42.8971C36.8719 42.8673 36.6333 42.748 36.4543 42.569C36.0964 42.2111 35.8577 41.7039 35.7086 41.0477C35.5893 40.4809 35.5296 39.6159 35.5893 38.3928C35.6787 37.2891 35.7682 36.5434 35.8577 36.1258C35.8577 36.0661 35.8577 36.0363 35.8875 35.9766C35.8875 35.917 35.8875 35.8573 35.8875 35.8275C35.8875 35.4994 35.8875 35.2905 35.8875 35.1712C35.8577 34.9922 35.7682 34.8431 35.6489 34.6939C35.2611 34.2167 34.9628 33.6499 34.8137 32.9937C34.5154 31.6215 34.6645 29.9212 35.3208 27.9226C35.6489 26.8487 36.1858 25.924 36.9316 25.2081C37.6773 24.4922 38.4529 24.0149 39.318 23.8359C39.9444 23.6868 40.541 23.7166 41.1078 23.8956C41.6745 24.0746 42.1816 24.4623 42.6589 24.9993C43.1064 25.5362 43.4643 26.2521 43.6433 27.147C43.8521 28.0419 43.9118 29.1456 43.8521 30.4283C43.8223 30.9652 43.7328 31.6811 43.5538 32.576C43.4047 33.5008 43.2555 34.0675 43.1362 34.2763C43.1064 34.3658 43.1064 34.4553 43.1362 34.515C43.1958 34.5746 43.2555 34.5746 43.345 34.515L45.6717 34.0377C46.4473 33.8587 47.1334 33.6201 47.7598 33.3218C48.1476 33.1428 48.5652 32.934 49.0126 32.6357C49.4601 32.3672 49.8181 32.1286 50.0567 31.9496C50.2058 31.7706 50.355 31.6811 50.534 31.6513C50.7726 31.5917 50.8919 31.6811 50.8621 31.9198C50.8323 32.4567 50.5041 32.8743 49.9075 33.2323C49.3109 33.5902 48.2967 34.0079 46.8947 34.5448L45.8805 34.9326L44.2399 35.38C44.0609 35.4099 43.7029 35.4695 43.1064 35.5292H43.0169C43.0169 35.5292 42.8081 35.6485 42.7782 35.7678C42.5992 36.3048 42.3009 36.9908 41.9728 37.8261C41.6149 38.6613 41.3762 39.1982 41.2271 39.4369L40.72 40.3019C40.2427 41.0477 39.8847 41.5548 39.6461 41.8829C39.3776 42.2111 39.0197 42.5093 38.5722 42.7778C38.4827 42.8076 38.3634 42.8673 38.1844 42.8971L38.1248 42.8673ZM41.3464 34.9326C41.5254 34.9028 41.6447 34.8133 41.764 34.6939C41.8833 34.5746 41.943 34.3957 41.9728 34.2167C42.1518 33.5902 42.3308 32.9937 42.4203 32.4567C42.5098 31.9198 42.5992 31.0845 42.6291 29.9808C42.6589 28.9368 42.5992 28.0419 42.4203 27.2962C42.2115 26.3714 41.8535 25.6854 41.3762 25.1783C40.8989 24.6711 40.3024 24.522 39.5864 24.6711C39.139 24.7606 38.6319 25.0888 38.0651 25.5959C37.4984 26.103 37.0509 26.7592 36.693 27.5348C36.335 28.3104 36.1262 29.1158 36.0069 29.9212C35.8577 30.8161 35.8279 31.532 35.8875 32.0689C35.9174 32.4269 35.9472 32.6655 35.977 32.8147C36.0367 33.0533 36.0964 33.2025 36.156 33.3218C36.156 33.4411 36.2157 33.5008 36.2753 33.5008C36.335 33.5008 36.3648 33.4411 36.3947 33.292L36.7526 32.1286C36.9614 31.3232 37.2299 30.6073 37.5282 29.9212C37.7668 29.2053 38.0055 28.7877 38.2739 28.7578C38.3634 28.7578 38.4529 28.7578 38.5722 28.8175C38.7214 28.9368 38.781 29.0263 38.8109 29.086C38.8109 29.2053 38.8109 29.4141 38.6915 29.6527C38.5722 29.8914 38.5126 30.0703 38.4529 30.1897L37.8861 32.1286C37.6475 33.113 37.4685 33.8587 37.3492 34.3658C37.3492 34.3658 37.3492 34.4255 37.3492 34.4553C37.3492 34.4851 37.3492 34.515 37.4387 34.5448C37.9458 34.694 38.4231 34.8133 38.8705 34.8431C39.318 34.9028 39.7356 34.9028 40.0935 34.9028C40.4515 34.9028 40.72 34.9028 40.9288 34.9028C41.0779 34.9326 41.1972 34.9326 41.3464 34.9028V34.9326ZM39.318 40.2423C39.6759 39.7054 40.0339 39.0789 40.4217 38.363C40.5708 38.0945 40.7498 37.6471 40.9586 37.0505L41.3464 36.0959C41.3464 36.0959 41.3464 35.8871 41.2271 35.8871H40.4515C39.5268 35.8871 38.5424 35.8275 37.4984 35.738H37.2895C37.2895 35.738 37.1404 35.8275 37.1106 35.9766C37.0211 36.3346 36.9316 36.8715 36.8719 37.6173C36.8719 37.7068 36.8123 37.9454 36.7824 38.2735C36.6631 39.1982 36.693 39.944 36.8123 40.5108C36.8719 40.7494 36.9913 41.0775 37.1702 41.4653C37.3492 41.7934 37.4984 41.9128 37.7072 41.8829C37.8265 41.8829 37.9458 41.7934 38.095 41.6443C38.5722 41.2267 38.96 40.7494 39.318 40.2125V40.2423Z" fill="#231F20"/>
<path d="M37.5586 43.0755C37.5586 43.0755 37.3199 43.0755 37.1708 43.0755C36.8128 43.0159 36.5444 42.8965 36.3355 42.6877C35.9478 42.2999 35.7091 41.763 35.56 41.1067C35.4407 40.54 35.381 39.6153 35.4407 38.3922C35.5301 37.3482 35.6196 36.5428 35.7091 36.0953C35.7091 36.0953 35.7091 36.0357 35.7091 36.0059V35.9462C35.7091 35.8865 35.7091 35.8865 35.7091 35.8567V35.8269C35.7091 35.4689 35.7091 35.2899 35.7091 35.2005C35.6793 35.0513 35.6196 34.932 35.5003 34.7828C35.0827 34.3056 34.8142 33.709 34.6352 33.0229C34.3071 31.6209 34.4861 29.8908 35.1424 27.8922C35.4705 26.7885 36.0372 25.8637 36.783 25.118C37.5287 24.3722 38.364 23.895 39.229 23.6862C39.8555 23.537 40.4819 23.5668 41.0785 23.7458C41.6751 23.9546 42.212 24.3424 42.6893 24.8794C43.1666 25.4461 43.5245 26.1919 43.7035 27.1166C43.9123 28.0115 43.972 29.145 43.9123 30.4575C43.8825 30.9646 43.793 31.6805 43.614 32.6351C43.435 33.5896 43.3157 34.1266 43.1964 34.3652C43.1964 34.3951 43.1964 34.4249 43.1964 34.4249H43.2561L45.5828 33.9178C46.3285 33.7388 47.0146 33.53 47.641 33.2317C48.0288 33.0527 48.4464 32.8439 48.8939 32.5754C49.401 32.2771 49.6993 32.0683 49.9379 31.8893C50.0572 31.7104 50.266 31.5911 50.4749 31.5612C50.624 31.5314 50.7731 31.5612 50.8626 31.6209C50.9521 31.7104 50.982 31.8297 50.982 31.9788C50.9521 32.5456 50.5942 33.0229 49.9379 33.4107C49.3115 33.7686 48.3271 34.1862 46.8953 34.7232L45.8811 35.111L44.2106 35.5584C44.0018 35.6181 43.5842 35.6777 43.0472 35.7076H42.9578C42.9578 35.7076 42.8384 35.797 42.8086 35.8567C42.6296 36.3936 42.3313 37.0797 42.0032 37.915C41.6452 38.7502 41.4066 39.2871 41.2575 39.5258L40.7503 40.3908C40.3029 41.1067 39.9151 41.6437 39.6466 42.0016C39.3782 42.3298 38.9904 42.6579 38.5429 42.9264C38.4236 42.986 38.3043 43.0159 38.1253 43.0755C37.9464 43.1053 37.7375 43.1352 37.5287 43.1352L37.5586 43.0755ZM36.0671 35.7672C36.0671 35.7672 36.0671 35.9164 36.0671 36.0059C36.0671 36.0059 36.0671 36.0357 36.0671 36.0655V36.1252C35.9776 36.5726 35.8881 37.3482 35.7986 38.3922C35.7688 39.5854 35.7986 40.4505 35.9179 41.0173C36.0671 41.6437 36.2759 42.121 36.6338 42.4491C36.783 42.5982 36.9918 42.7176 37.2901 42.7474C37.5884 42.7772 37.8867 42.7474 38.1552 42.7176C38.364 42.6579 38.4535 42.6281 38.5131 42.5982C38.9307 42.3596 39.2887 42.0613 39.5273 41.763C39.7958 41.4349 40.1538 40.8979 40.6012 40.182L41.1083 39.317C41.2276 39.138 41.4364 38.7502 41.8541 37.736C42.212 36.9306 42.4805 36.2445 42.6595 35.7076C42.7191 35.5286 42.8384 35.4391 43.0174 35.3794H43.1069C43.6438 35.2899 44.0615 35.2303 44.2404 35.2005L45.8811 34.753L46.8953 34.3652C48.2973 33.8581 49.3115 33.4107 49.8783 33.0825C50.445 32.7544 50.7433 32.3666 50.7732 31.8893C50.7732 31.8297 50.7732 31.7999 50.7732 31.77C50.7732 31.7402 50.7135 31.77 50.6538 31.77C50.5047 31.7999 50.3854 31.8894 50.266 32.0385C49.9976 32.2473 49.6694 32.4561 49.1623 32.7544C48.6851 33.0229 48.2674 33.2615 47.8797 33.4405C47.2234 33.7388 46.5075 33.9774 45.7618 34.1564L43.4649 34.6337C43.4649 34.6337 43.1964 34.6635 43.1069 34.574C43.0771 34.5442 42.9578 34.4249 43.0472 34.1862C43.1367 33.9774 43.2859 33.4107 43.435 32.5158C43.614 31.5911 43.7035 30.8751 43.7333 30.368C43.793 29.0854 43.7333 28.0115 43.5245 27.1166C43.3455 26.2515 43.0174 25.5356 42.57 25.0285C42.1225 24.5214 41.6452 24.1634 41.1083 23.9845C40.5714 23.8055 40.0046 23.7757 39.408 23.9248C38.5728 24.1038 37.7972 24.5512 37.1111 25.2671C36.3952 25.9831 35.8583 26.8779 35.5301 27.922C34.9037 29.8609 34.7247 31.5314 35.023 32.9036C35.1722 33.53 35.4407 34.0968 35.8284 34.5442C35.9776 34.7232 36.0671 34.9022 36.0969 35.0811C36.0969 35.2303 36.1267 35.4391 36.0969 35.7672H36.0671ZM37.6481 42.0613C37.4094 42.0613 37.2304 41.8823 37.0515 41.5542C36.8725 41.1067 36.7532 40.7786 36.6935 40.5698C36.5742 39.9732 36.5444 39.2275 36.6637 38.2729C36.6935 37.9448 36.7233 37.7062 36.7532 37.5868C36.8128 36.8411 36.9023 36.3042 36.9918 35.9462C36.9918 35.8865 37.0515 35.6181 37.2901 35.5584H37.5287C38.5429 35.6479 39.4378 35.7076 40.2432 35.7076H41.2276C41.2276 35.7076 41.4364 35.797 41.4663 35.8269C41.5259 35.9164 41.5259 36.0059 41.4663 36.1252L41.0785 37.0797C40.8697 37.6465 40.6609 38.0939 40.5415 38.3922C40.1538 39.1082 39.7958 39.7346 39.4378 40.2715C39.0799 40.8383 38.6623 41.3156 38.185 41.7332C38.0358 41.8823 37.8867 41.9718 37.7375 42.0016C37.7077 42.0016 37.6779 42.0016 37.6481 42.0016V42.0613ZM37.3199 35.8567C37.3199 35.8567 37.2901 35.9164 37.2603 36.0059C37.1708 36.3638 37.0813 36.8709 37.0216 37.6167C37.0216 37.7062 36.9918 37.8553 36.9321 38.2729C36.8128 39.1976 36.8427 39.9136 36.962 40.4803C37.0216 40.6891 37.1111 41.0173 37.3199 41.405C37.4392 41.6139 37.5586 41.7332 37.6481 41.7332C37.6481 41.7332 37.6481 41.7332 37.6779 41.7332C37.7674 41.7332 37.8867 41.6437 37.9762 41.5542C38.4236 41.1366 38.8412 40.6891 39.1694 40.1522C39.5273 39.6153 39.8853 38.9888 40.2432 38.3027C40.3924 38.0343 40.5714 37.5868 40.7802 37.0201L41.168 36.0655L40.3924 36.0357C39.5273 36.0357 38.5429 36.0059 37.4392 35.8865H37.2603L37.3199 35.8567ZM41.168 35.0811C41.168 35.0811 40.989 35.0811 40.9293 35.0811C40.7802 35.0811 40.5117 35.0811 40.1538 35.0811C39.7361 35.0811 39.3185 35.0811 38.9009 35.0215C38.4535 34.9916 37.9762 34.8723 37.4392 34.7232C37.2006 34.6337 37.2304 34.4845 37.2304 34.4547H37.3796L37.2304 34.4249V34.3652C37.3498 33.9774 37.4989 33.2615 37.7674 32.128L38.3341 30.1592L38.4236 29.9802C38.4236 29.9802 38.5131 29.7714 38.5728 29.6223C38.6921 29.3538 38.6921 29.2047 38.6921 29.145C38.6921 29.145 38.6324 29.0555 38.5131 28.9362C38.4833 28.9362 38.4236 28.8765 38.364 28.9064C38.2745 28.9064 38.0358 29.0854 37.7375 29.9802C37.4392 30.6962 37.1708 31.4121 36.962 32.1578L36.604 33.3212C36.604 33.3212 36.5145 33.6493 36.3057 33.6195C36.1864 33.5896 36.1267 33.4703 36.0969 33.351C36.0372 33.2317 35.9776 33.0825 35.9179 32.8141C35.8881 32.6351 35.8583 32.3666 35.8284 32.0385C35.7688 31.5016 35.8284 30.7558 35.9478 29.8609C36.0671 29.0257 36.3057 28.2203 36.6338 27.4149C36.9918 26.6095 37.4691 25.9532 38.0358 25.4163C38.6026 24.9092 39.1395 24.5811 39.6168 24.4617C40.3924 24.2828 41.0188 24.4617 41.5259 24.9987C42.033 25.5058 42.391 26.2515 42.5998 27.1762C42.7788 27.9518 42.8384 28.8169 42.8086 29.8908C42.7788 31.0243 42.6893 31.8297 42.5998 32.3965C42.5103 32.9036 42.3612 33.5002 42.1523 34.1862C42.1523 34.3652 42.033 34.5442 41.9137 34.6933C41.7646 34.8425 41.6154 34.932 41.4066 34.9916C41.4066 34.9916 41.2575 34.9916 41.1978 34.9916L41.168 35.0811ZM40.631 34.753C40.631 34.753 40.8398 34.753 40.9293 34.753C41.0785 34.7828 41.1978 34.7828 41.2873 34.753C41.2873 34.753 41.5558 34.6635 41.6452 34.5442C41.7347 34.4249 41.7944 34.3056 41.8242 34.1564C42.033 33.4703 42.1822 32.9036 42.2717 32.3965C42.3612 31.8595 42.4506 31.0243 42.4805 29.9206C42.5103 28.9064 42.4506 28.0115 42.2717 27.2657C42.0629 26.3708 41.7347 25.6848 41.2873 25.2075C40.8398 24.7302 40.3029 24.6109 39.6466 24.7302C39.229 24.8197 38.7518 25.118 38.2148 25.5953C37.6779 26.0725 37.2304 26.7288 36.9023 27.4745C36.5742 28.2501 36.3355 29.0257 36.2162 29.8311C36.0671 30.6962 36.0372 31.4121 36.0969 31.949C36.0969 32.2771 36.1566 32.5456 36.1864 32.6948C36.2461 32.9036 36.2759 33.0229 36.3355 33.1124L36.6637 32.0087C36.8725 31.2629 37.1409 30.5172 37.4392 29.8013C37.7077 29.0257 37.9762 28.6081 38.3043 28.5484C38.3938 28.5484 38.5429 28.5484 38.6921 28.6379C38.8711 28.7871 38.9606 28.9064 38.9904 28.9959C39.0202 29.145 38.9904 29.3538 38.8711 29.6521C38.8114 29.8013 38.7518 29.9206 38.6921 30.0101L38.6324 30.1592L38.0657 32.0982C37.827 33.2019 37.6481 33.9178 37.5287 34.3056C38.0358 34.4845 38.4833 34.574 38.9009 34.6337C39.3185 34.6635 39.7063 34.6933 40.1239 34.6933C40.3327 34.6933 40.5117 34.6933 40.631 34.6933V34.753Z" fill="#231F20"/>
<path d="M60.2284 36.9015C59.9302 35.6487 59.7213 34.0975 59.5424 32.2779C59.3634 30.4583 59.2739 28.9071 59.2739 27.6244C59.2739 26.8489 59.2739 26.0136 59.2739 25.1187C59.2739 24.2537 59.2739 23.5676 59.2739 23.1202C59.2739 23.0008 59.1844 22.971 59.1247 23.0903C58.2895 24.6116 57.4543 26.2224 56.6489 27.9227L54.3222 32.9341L53.9344 33.7694C53.2483 35.231 52.4429 36.812 51.4883 38.572C51.1602 39.1387 50.8321 39.4669 50.4741 39.5564C50.2056 39.616 49.9372 39.5564 49.609 39.437C49.3704 39.3475 49.2213 39.1686 49.1318 38.8703C49.0721 38.5421 49.0721 38.1245 49.1914 37.6174L49.3108 36.7822C49.5494 34.7836 49.7582 33.5307 49.9372 32.9938L50.3846 31.1145C50.4443 30.9356 51.0409 28.5193 52.2639 23.9256C52.3832 23.6869 52.5025 23.5378 52.6517 23.5079C52.8307 23.4781 52.9798 23.5079 53.0991 23.6869C53.2185 23.8361 53.2483 24.015 53.2185 24.194C53.0693 24.731 52.9798 25.1187 52.9202 25.417C52.8903 25.5662 52.8307 25.775 52.8008 26.0435C52.7412 26.3119 52.6815 26.5506 52.6219 26.6997C52.4727 27.1472 52.3236 27.8034 52.1446 28.579C51.9656 29.3844 51.8463 29.9512 51.7568 30.3091C51.5778 31.1444 51.369 32.0393 51.1602 32.9938C50.9216 34.0378 50.7128 35.2012 50.5039 36.5436C50.2951 37.8561 50.325 38.3333 50.5636 37.9754C51.0111 37.2296 51.3392 36.6927 51.5182 36.3049C52.0551 35.231 52.5324 34.187 52.95 33.2623C53.2483 32.5464 53.5764 31.8304 53.9344 31.1145C54.3222 30.2793 54.9784 28.9668 55.8733 27.1472C56.7682 25.3276 57.4244 24.015 57.8122 23.1798C58.1404 22.5534 58.379 22.1059 58.5282 21.8971C58.6773 21.6883 58.8563 21.5392 59.0949 21.5093C59.1546 21.5093 59.2739 21.5093 59.4529 21.5093C59.96 21.569 60.2881 21.927 60.4373 22.613C60.5566 23.15 60.5864 23.8361 60.5566 24.7011C60.4671 26.9384 60.4671 28.937 60.5566 30.6671C60.6759 32.3972 60.9145 34.1273 61.3023 35.7978C61.5111 36.7524 61.7199 37.4981 61.8691 38.0052C62.0182 38.3632 62.227 38.0947 62.5253 37.2595C62.8236 36.4242 63.1219 35.2907 63.4501 33.829C63.7782 32.3972 64.0168 31.025 64.1958 29.7424C64.4941 27.7139 64.7327 25.9241 64.8819 24.373C65.031 22.8517 65.1802 21.748 65.3592 21.0321C65.5978 20.2267 65.8663 19.7792 66.1944 19.6897C66.5524 19.6002 66.8805 19.9284 67.149 20.6443L67.7157 22.5236C68.014 23.5378 68.2527 24.2835 68.4615 24.7608C68.6703 25.2381 68.9686 25.6855 69.3564 26.1031C69.7441 26.4909 70.3407 26.9085 71.1163 27.2963C71.5936 27.535 72.1007 27.6244 72.578 27.5051C72.8763 27.4455 73.1746 27.2963 73.4729 27.1173C74.2484 26.4611 74.7854 26.0733 75.1135 26.0136C75.2626 25.9838 75.3521 26.0136 75.382 26.1628C74.6661 27.3261 73.7712 28.0122 72.6973 28.2509C71.6234 28.4895 70.5495 28.2509 69.4757 27.5051C68.4018 26.7594 67.6262 25.6855 67.0595 24.2537C66.9103 23.8062 66.7612 23.3588 66.6418 22.8815C66.6418 22.792 66.5822 22.6429 66.5225 22.4639C66.4629 22.2551 66.4032 22.1656 66.3734 22.1656C66.3137 22.1656 65.9558 24.7011 65.3293 29.7424L64.8819 33.143C64.7327 34.1572 64.4643 35.2609 64.0765 36.4541C63.6887 37.6174 63.3009 38.4825 62.9131 38.9896C62.764 39.1984 62.5253 39.3475 62.1972 39.4072C61.8094 39.4967 61.4515 39.4072 61.1532 39.2282C60.825 39.0492 60.4969 38.2737 60.1986 36.9612L60.2284 36.9015Z" fill="#231F20"/>
<path d="M50.2058 39.7046C49.997 39.7046 49.7583 39.645 49.5197 39.5555C49.2214 39.466 49.0424 39.2273 48.9529 38.8694C48.8634 38.5114 48.8933 38.0938 49.0126 37.5569L49.1319 36.7216C49.3705 34.7231 49.5794 33.4404 49.7583 32.9034L50.2058 31.0242C50.2654 30.8452 50.862 28.4886 52.0851 23.8352C52.2044 23.5071 52.3834 23.3579 52.5922 23.2982C52.7413 23.2684 52.9799 23.2983 53.1888 23.5071C53.3379 23.686 53.3976 23.9247 53.3379 24.1633C53.1888 24.6704 53.0993 25.088 53.0396 25.3565C53.0098 25.5057 52.9501 25.7145 52.9203 25.9829C52.8606 26.2812 52.801 26.5199 52.7115 26.669C52.5922 27.0866 52.4132 27.7131 52.2342 28.5185C52.0552 29.3239 51.9359 29.8906 51.8464 30.2486C51.6674 31.0838 51.4586 31.9787 51.2498 32.9333C51.0112 34.037 50.8024 35.2003 50.6234 36.4532C50.5339 37.1094 50.5041 37.4674 50.5041 37.6464C50.9515 36.9305 51.22 36.4532 51.3691 36.1251C51.8762 35.081 52.3535 34.0668 52.801 33.0824C53.1291 32.3367 53.4572 31.6208 53.7854 30.9347C54.1731 30.1293 54.7697 28.8764 55.7243 26.9673C56.6192 25.1477 57.2754 23.8352 57.6632 23C57.9914 22.3437 58.23 21.9261 58.3791 21.7173C58.5283 21.4786 58.7669 21.3295 59.0354 21.2698C59.0951 21.2698 59.2144 21.2698 59.4232 21.2698C60.0198 21.3295 60.3777 21.7471 60.5567 22.463C60.676 23 60.7059 23.7159 60.676 24.6108C60.5865 26.7883 60.5865 28.8168 60.676 30.5767C60.7954 32.3068 61.034 34.0071 61.4218 35.6776C61.6306 36.6023 61.8096 37.3481 61.9885 37.8552C62.0482 37.7955 62.1675 37.6165 62.3465 37.0796C62.6448 36.2444 62.9431 35.1108 63.2712 33.679C63.5993 32.277 63.838 30.9048 64.017 29.6222C64.3153 27.5937 64.5539 25.804 64.7031 24.2528C64.8522 22.7613 65.0013 21.6278 65.1803 20.882C65.419 20.017 65.7471 19.5397 66.1349 19.4502C66.5823 19.3309 66.9701 19.7187 67.2684 20.4943L67.8352 22.4034C68.1335 23.4176 68.3721 24.1633 68.5809 24.6108C68.7897 25.088 69.088 25.5057 69.446 25.8934C69.8338 26.2812 70.4005 26.669 71.1761 27.0568C71.6236 27.2954 72.071 27.3551 72.5483 27.2656C72.8466 27.2059 73.115 27.0866 73.3835 26.8778C74.1591 26.1917 74.7258 25.8338 75.054 25.7443C75.1733 25.7443 75.2926 25.7443 75.3523 25.7741C75.4418 25.804 75.4716 25.8934 75.5014 25.9829V26.0426V26.1023C74.7557 27.2954 73.831 28.0114 72.7273 28.25C71.5937 28.5185 70.49 28.25 69.3863 27.4744C68.3125 26.6988 67.4772 25.5951 66.9403 24.1335C66.7613 23.686 66.642 23.2088 66.5227 22.7613C66.5227 22.7017 66.4928 22.6122 66.463 22.4928C66.3437 23.2088 66.0752 25.0582 65.5084 29.5923L65.061 32.9929C64.9119 34.037 64.6434 35.1407 64.2556 36.304C63.8678 37.4674 63.48 38.3325 63.0624 38.8694C62.8834 39.108 62.615 39.287 62.257 39.3467C61.8394 39.4362 61.4516 39.3467 61.0936 39.1677C60.7059 38.9589 60.3777 38.2131 60.0794 36.8111C59.7811 35.5583 59.5723 34.0071 59.3933 32.1577C59.2144 30.3381 59.1249 28.7571 59.1249 27.5042C59.1249 26.7287 59.1249 25.8934 59.1249 24.9985C59.1249 24.2528 59.1249 23.686 59.1249 23.2684C58.3195 24.7301 57.5439 26.2514 56.7982 27.8622L54.0836 33.679C53.4274 35.081 52.622 36.662 51.6376 38.4816C51.2797 39.108 50.9217 39.4362 50.5041 39.5256C50.4146 39.5256 50.3251 39.5555 50.2356 39.5555L50.2058 39.7046ZM52.7115 23.6264H52.6518C52.5623 23.6264 52.4728 23.7457 52.3834 23.9545C51.1902 28.5781 50.5637 30.9347 50.5339 31.1136L50.0865 32.9929C49.9075 33.5 49.6987 34.7529 49.46 36.7515L49.3407 37.5867C49.2214 38.0938 49.2214 38.4816 49.2811 38.7799C49.3407 39.0185 49.46 39.1677 49.639 39.2273C49.9373 39.3467 50.2058 39.3765 50.4146 39.3168C50.7427 39.2572 51.041 38.9589 51.3393 38.4219C52.3237 36.6023 53.1291 35.0512 53.7854 33.6492L54.1731 32.8139L56.4999 27.8025C57.3053 26.1022 58.1405 24.4616 58.9757 22.9701C59.0354 22.8508 59.1249 22.821 59.2144 22.821C59.3635 22.821 59.3933 23 59.3933 23.0298C59.3933 23.5071 59.3933 24.1335 59.3933 25.088C59.3933 25.9531 59.3933 26.7883 59.3933 27.5937C59.3933 28.8466 59.4828 30.3977 59.6618 32.2174C59.8408 34.037 60.0794 35.5881 60.3479 36.8111C60.7059 38.3921 61.034 38.8694 61.2428 38.9887C61.5113 39.1677 61.8394 39.2273 62.1675 39.1379C62.4658 39.0782 62.6448 38.9589 62.7939 38.7799C63.1817 38.243 63.5695 37.4077 63.9573 36.2742C64.3451 35.1108 64.6136 34.0071 64.7627 32.9929L65.2102 29.5923C66.1647 21.9261 66.2244 21.9261 66.3735 21.8963H66.4332H66.4928C66.5525 21.9261 66.6122 22.0156 66.7016 22.2542C66.7613 22.463 66.7911 22.6122 66.821 22.7017C66.9104 23.1491 67.0596 23.5965 67.2088 24.044C67.7457 25.4162 68.5213 26.49 69.5653 27.2358C70.5795 27.9517 71.6236 28.1903 72.6676 27.9517C73.652 27.7131 74.517 27.0866 75.2031 26.0128C75.2031 26.0128 75.2031 26.0128 75.1435 26.0128C74.9347 26.0426 74.517 26.2812 73.5625 27.0866C73.2344 27.2954 72.9361 27.4446 72.6079 27.5042C72.071 27.6236 71.5639 27.5341 71.0568 27.2954C70.2812 26.9077 69.6548 26.5199 69.267 26.1023C68.8792 25.6846 68.5511 25.2372 68.3423 24.7301C68.1335 24.2528 67.865 23.5071 67.5667 22.4928L66.9999 20.6136C66.7911 20.0468 66.5525 19.7485 66.284 19.7485H66.2244C66.0454 19.7783 65.7471 20.0468 65.4786 20.9715C65.2996 21.6874 65.1505 22.821 65.0014 24.2826C64.8522 25.804 64.6136 27.6236 64.3153 29.652C64.1363 30.9645 63.8678 32.3367 63.5695 33.7387C63.2414 35.1705 62.9431 36.3339 62.6448 37.1691C62.3465 37.9745 62.1675 38.1535 61.9885 38.1535C61.9885 38.1535 61.7797 38.1236 61.7201 37.9148C61.5411 37.3779 61.3621 36.6322 61.1533 35.7074C60.7655 34.037 60.5269 32.3068 60.4076 30.5469C60.2882 28.7869 60.2882 26.7585 60.4076 24.5511C60.4672 23.7159 60.4076 23 60.3181 22.4928C60.1988 21.8963 59.9005 21.5681 59.453 21.5085C59.453 21.5085 59.2144 21.5085 59.1249 21.5085C58.9161 21.5383 58.7669 21.6576 58.6476 21.8366C58.4985 22.0454 58.2598 22.463 57.9615 23.0894C57.5737 23.9247 56.9175 25.2372 56.0226 27.0568C55.068 28.9659 54.4714 30.2188 54.0836 31.0242C53.7257 31.7102 53.3976 32.4262 53.0993 33.1719C52.6518 34.1563 52.1745 35.2003 51.6674 36.2444C51.4885 36.6023 51.22 37.1094 50.6831 37.9148C50.6532 37.9745 50.5637 38.0938 50.4444 38.0938C50.4444 38.0938 50.4146 38.0938 50.3848 38.0938C50.2356 38.0342 50.1461 37.885 50.3848 36.3935C50.5637 35.1407 50.7725 33.9475 51.041 32.8438C51.2498 31.8892 51.4586 30.9943 51.6376 30.1591C51.7271 29.8011 51.8464 29.2344 52.0254 28.429C52.2044 27.5937 52.3535 26.9673 52.5027 26.5199C52.5623 26.3409 52.622 26.1619 52.6817 25.8636C52.7413 25.5951 52.7711 25.3863 52.801 25.2372C52.8606 24.9389 52.9501 24.5213 53.0993 24.0142C53.1291 23.865 53.0993 23.7457 53.0098 23.6264C52.9203 23.5369 52.8606 23.5071 52.7711 23.5071L52.7115 23.6264Z" fill="#231F20"/>
<path d="M72.7871 36.7816C72.7871 36.7816 72.7871 36.5132 72.7871 36.3043C72.8468 35.6779 72.996 34.5444 73.2943 32.9634C73.5627 31.3824 73.8312 29.8611 74.1295 28.4293C74.3383 27.2958 75.0542 24.0443 76.3071 18.6451L76.6948 16.8255C77.1721 14.7971 77.5897 12.9775 77.9477 11.3368C78.3951 9.18909 78.7233 7.75726 78.9321 7.04135C79.29 5.60952 79.7077 3.70041 80.2446 1.25437C80.2446 0.926244 80.3639 0.717435 80.5727 0.657776C80.6622 0.657776 80.7517 0.657776 80.8412 0.747265C80.9307 0.836754 80.9903 0.956074 81.0202 1.13505V1.52284C80.8412 2.92484 80.692 3.81973 80.6025 4.23735C80.3043 5.72884 79.9463 7.45896 79.469 9.48739L76.5755 22.4335L75.3823 27.8327C75.3227 28.0415 75.1437 29.1452 74.7559 31.1736L74.6366 31.8299C74.6366 31.8299 74.6366 32.0089 74.6664 32.1282C74.6664 32.1878 74.6963 32.2177 74.7261 32.2177C74.7559 32.2177 74.8156 32.1282 74.9051 31.9492L75.3227 31.1438C75.9491 30.0699 76.2772 29.5032 76.2772 29.4733C77.6196 27.3256 78.5741 25.8938 79.1111 25.148C79.648 24.4023 80.692 23.1494 82.2134 21.3895C82.452 21.121 82.6906 20.8525 82.8696 20.6139C83.0486 20.3752 83.2276 20.1664 83.4065 20.0173C84.3909 18.8539 85.1367 18.0187 85.6139 17.5414C86.0912 17.0641 86.5088 16.7658 86.8071 16.7062C86.9861 16.6764 87.1054 16.7062 87.2248 16.8255C87.4037 16.9747 87.3739 17.3028 87.1651 17.7204C86.9563 18.1678 86.6878 18.5556 86.3597 18.9434C84.4804 21.2403 82.631 23.2687 80.871 24.9989C80.2744 25.5955 79.7673 26.1026 79.3497 26.5798C78.9321 27.0571 78.604 27.5344 78.3057 28.0713C78.2162 28.2503 78.1863 28.3995 78.2162 28.4889C78.2162 28.6083 78.3653 28.6083 78.6338 28.5486C80.871 28.2503 83.496 27.7432 86.5088 27.0571C87.1353 26.908 87.6722 26.7887 88.06 26.6992C88.4776 26.6097 88.7162 26.5202 88.8356 26.5202C89.1935 26.4307 89.5813 26.371 89.9691 26.3412C90.3569 26.3114 90.685 26.3412 90.8938 26.4307C90.9833 26.4904 91.043 26.55 91.0728 26.6395C91.0728 26.7588 91.0728 26.8483 91.043 26.908C90.9833 26.9975 90.9236 27.0273 90.8342 27.0273L87.7319 27.6835C83.0486 28.7574 80.3937 29.3242 79.7971 29.4137C79.2304 29.5032 78.6934 29.5032 78.1863 29.4733C78.0074 29.4733 77.888 29.4733 77.7389 29.4733C77.5002 29.533 77.2914 29.712 77.0826 30.0103C76.3966 31.2631 75.9193 32.158 75.6806 32.6949C75.4122 33.2319 75.2034 33.6793 75.0542 34.0969C74.9647 34.3952 74.6366 35.2305 74.0698 36.5728C73.9505 36.8711 73.8014 37.0501 73.6522 37.0799C73.5926 37.0799 73.4136 37.0799 73.1451 37.0799C72.9363 37.0799 72.817 36.9606 72.7871 36.7816Z" fill="#231F20"/>
<path d="M73.5629 37.2587C73.5629 37.2587 73.3243 37.2587 73.1453 37.2587C72.7873 37.2289 72.668 37.0201 72.6382 36.8709C72.6382 36.7516 72.6382 36.6025 72.6382 36.3638C72.6978 35.6778 72.8768 34.5144 73.1453 33.0229C73.4137 31.4121 73.712 29.8908 73.9805 28.4888C74.2191 27.3254 74.9649 23.9547 76.1581 18.7046L76.5459 16.885C76.9933 15.0057 77.4109 13.1563 77.7987 11.3963C78.2462 9.27841 78.5743 7.81675 78.7831 7.10084C79.1112 5.72867 79.5587 3.81956 80.0956 1.31386C80.0956 0.836586 80.3342 0.657607 80.5431 0.627777C80.6325 0.627777 80.7817 0.627777 80.9308 0.747096C81.0502 0.836585 81.1098 0.985734 81.1695 1.19454V1.61216C80.9607 3.19314 80.8414 3.96871 80.7519 4.38633C80.4536 5.84799 80.0956 7.60794 79.6183 9.6662L75.5317 27.9817C75.472 28.1905 75.2632 29.3837 74.9052 31.3226L74.7859 31.949L75.1737 31.2033C75.8001 30.1294 76.1283 29.5627 76.1283 29.5328C77.5601 27.2658 78.455 25.8936 78.9919 25.1777C79.5288 24.4319 80.5431 23.2089 82.0942 21.4191C82.3328 21.1507 82.5715 20.8822 82.7505 20.6436C82.9593 20.4049 83.1382 20.1961 83.2874 20.0171C84.2718 18.8538 85.0175 18.0185 85.4948 17.5413C86.0019 17.0342 86.4195 16.7359 86.7775 16.6464C86.9863 16.5867 87.1951 16.6464 87.3442 16.7955C87.5829 17.0043 87.5531 17.3623 87.3144 17.8694C87.1056 18.3168 86.8073 18.7344 86.4792 19.1222C84.6297 21.4191 82.7505 23.4475 80.9607 25.1777C80.3641 25.7444 79.857 26.2814 79.4394 26.7288C79.0516 27.1763 78.6936 27.6834 78.4251 28.1905C78.3357 28.3695 78.3357 28.459 78.3357 28.5186C78.3357 28.5186 78.3953 28.5186 78.5743 28.4888C80.8115 28.1905 83.4365 27.6834 86.4493 26.9973C87.1354 26.8481 87.6425 26.7288 88.0005 26.6393H88.09C88.4479 26.52 88.6568 26.4604 88.7761 26.4604C89.134 26.3709 89.5218 26.3112 89.9394 26.2814C90.357 26.2814 90.6852 26.2814 90.9238 26.3709C91.073 26.4305 91.1625 26.5498 91.1923 26.6692C91.2221 26.8183 91.1923 26.9376 91.1326 27.057C91.1028 27.1464 90.9835 27.2359 90.8045 27.2359L87.732 27.8922C82.8996 28.9959 80.3939 29.5328 79.7973 29.6223C79.2007 29.7118 78.6638 29.7416 78.1567 29.682C78.0075 29.682 77.8584 29.682 77.7689 29.682C77.5601 29.7118 77.3811 29.8908 77.2021 30.1592C76.5757 31.3226 76.0686 32.2473 75.8001 32.8141C75.5317 33.351 75.3228 33.7985 75.1737 34.1863C75.114 34.4846 74.8157 35.2303 74.1893 36.6621C74.0402 37.0201 73.8612 37.1991 73.6524 37.2587C73.6226 37.2587 73.5629 37.2587 73.5331 37.2587H73.5629ZM80.5729 0.866415C80.5729 0.866415 80.3641 0.926075 80.3342 1.31386C79.7973 3.84939 79.3499 5.72867 79.0217 7.13067C78.8129 7.87641 78.4848 9.30824 78.0374 11.4262C77.6496 13.1861 77.232 15.0356 76.7845 16.9148L76.3967 18.7344C75.2035 23.9845 74.4578 27.3552 74.2191 28.5186C73.9507 29.9206 73.6822 31.4419 73.3839 33.0527C73.1154 34.5442 72.9663 35.6778 72.9066 36.3638C72.9066 36.513 72.9066 36.692 72.9066 36.7815C72.9066 36.7815 72.9663 36.9306 73.1453 36.9604C73.4734 36.9604 73.5629 36.9604 73.5927 36.9604C73.6225 36.9604 73.7717 36.9008 73.9208 36.5428C74.5174 35.1408 74.8157 34.3652 74.9052 34.0968C75.0842 33.6792 75.293 33.2019 75.5317 32.6948C75.8001 32.128 76.3072 31.2033 76.9635 30.0101C77.2021 29.6521 77.4408 29.4433 77.7092 29.3837C77.8584 29.3837 78.0075 29.3837 78.2163 29.3837C78.6936 29.4433 79.2007 29.3837 79.7675 29.324C80.3342 29.2345 82.9294 28.6678 87.6724 27.5939L90.7747 26.9376C90.7747 26.9376 90.8642 26.9376 90.894 26.878C90.894 26.8481 90.9238 26.7885 90.894 26.699C90.894 26.699 90.894 26.6393 90.8045 26.6095C90.5957 26.52 90.2974 26.52 89.9693 26.5498C89.5516 26.5797 89.1937 26.6393 88.8357 26.7288C88.7462 26.7288 88.5076 26.8183 88.1795 26.9078H88.09C87.732 27.0271 87.2249 27.1464 86.509 27.2956C83.4962 27.9817 80.8414 28.4888 78.634 28.7871C78.4251 28.8467 78.276 28.8169 78.1567 28.7871C78.097 28.7572 78.0672 28.6976 78.0374 28.6081C78.0075 28.459 78.0374 28.28 78.1567 28.0712C78.455 27.5342 78.8129 27.0271 79.2305 26.5498C79.6482 26.0726 80.1553 25.5356 80.7519 24.9689C82.5416 23.2387 84.3613 21.2103 86.2405 18.9433C86.5388 18.5853 86.8073 18.1975 87.0161 17.7501C87.1354 17.4816 87.2548 17.1535 87.1056 17.0043C87.0161 16.9447 86.9565 16.9148 86.8073 16.9447C86.509 17.0043 86.1212 17.2728 85.6738 17.7501C85.1965 18.2572 84.4508 19.0626 83.4664 20.2259C83.3172 20.4049 83.1382 20.6137 82.9294 20.8225C82.7206 21.0612 82.5118 21.3296 82.2732 21.5981C80.722 23.3879 79.7078 24.6109 79.1709 25.3268C78.6638 26.0129 77.7689 27.3851 76.3371 29.6521C76.3371 29.6521 76.0089 30.2189 75.3825 31.3226L74.9649 32.128C74.8754 32.3666 74.7859 32.4561 74.6964 32.486H74.6368H74.5771C74.5174 32.4561 74.4876 32.3667 74.4578 32.307C74.4578 32.1877 74.428 32.0982 74.428 31.9789L74.5473 31.2928C74.9351 29.1749 75.114 28.1607 75.1737 27.9518L79.2604 9.63637C79.7078 7.60794 80.0956 5.84799 80.3939 4.38633C80.4834 3.99854 80.6027 3.22297 80.8115 1.67182V1.31386C80.8115 1.31386 80.722 1.10505 80.6325 1.04539C80.6325 1.04539 80.5729 0.985734 80.5132 0.985734L80.5729 0.866415Z" fill="#231F20"/>
<path d="M90.8941 26.4015C90.8941 26.4015 90.8345 26.0137 90.8046 25.7155C90.8046 25.6558 90.8046 25.5663 90.8046 25.447C90.745 25.1785 90.566 25.0592 90.2677 25.0592C90.1782 25.0592 90.1186 25.0592 90.0589 25.0592C89.9992 25.0294 89.9694 24.9995 89.9694 24.9399C89.9396 24.7907 90.0291 24.6416 90.2379 24.5521C90.5362 24.4029 90.7151 24.1643 90.7151 23.8362C90.8345 21.4796 91.6399 19.1231 93.1314 16.7665C93.9069 15.5435 94.772 14.5293 95.7564 13.7537C96.0547 13.5151 96.3828 13.3361 96.6811 13.2764C97.0689 13.1869 97.4268 13.2168 97.7848 13.3958C98.0234 13.5151 98.1726 13.6344 98.2919 13.7835C98.4112 13.9327 98.4709 14.1117 98.4709 14.3503C98.4709 15.1855 98.2621 16.1103 97.7848 17.1543C97.3075 18.1983 96.7109 19.1827 96.0248 20.1075C94.6825 21.8376 93.3998 23.2097 92.1171 24.2836C91.8785 24.4626 91.789 24.6416 91.8188 24.8504L92.0277 25.9839C92.2365 26.9385 92.5944 27.714 93.0419 28.2808C93.6981 29.0564 94.414 29.3547 95.1896 29.1757C95.4879 29.116 95.7564 28.9967 95.995 28.8476C97.0987 28.2211 98.0533 27.5649 98.799 26.8788C99.5448 26.1927 100.619 25.1487 101.961 23.7169L103.303 22.3447C103.81 21.8376 104.318 21.2708 104.854 20.704C105.391 20.1373 105.839 19.5705 106.197 19.0634C106.256 18.9441 106.346 18.8844 106.465 18.8844C106.555 18.8844 106.704 18.8844 106.972 18.9739C107.092 19.0038 107.151 19.0932 107.181 19.1827C107.241 19.4214 107.092 19.7495 106.734 20.1969C105.511 21.6288 103.96 23.2992 102.05 25.1785C100.917 26.3419 99.9027 27.2964 99.0377 28.0422C98.5604 28.4598 97.9041 28.9371 97.0391 29.474C96.6811 29.6828 96.2933 29.832 95.8757 29.9513C95.1001 30.1303 94.3544 30.1004 93.6086 29.8618C92.8629 29.6231 92.2961 29.2055 91.9083 28.6089C91.3714 27.714 91.0433 26.9981 90.8941 26.4015ZM92.8629 22.5833C93.3402 22.106 93.7578 21.5989 94.2052 21.0918C95.1001 19.9583 95.8757 18.7651 96.5021 17.6018C97.1285 16.4086 97.4268 15.4242 97.4268 14.5889C97.397 14.2608 97.2777 14.1117 97.0391 14.1713C96.8601 14.2012 96.5021 14.4696 95.995 14.9469C95.5476 15.3943 95.1598 15.8716 94.772 16.3787C94.3842 16.8858 93.9964 17.5123 93.549 18.258C93.1015 19.0336 92.6839 20.018 92.2961 21.241C91.9083 22.464 91.8188 23.1203 92.0575 23.2396C92.147 23.2694 92.4453 23.0606 92.8927 22.5833H92.8629Z" fill="#231F20"/>
<path d="M94.8912 30.2192C94.4438 30.2192 93.9964 30.1595 93.5489 30.0104C92.7733 29.7717 92.1767 29.3243 91.7591 28.6978C91.1924 27.7731 90.8642 27.0572 90.7449 26.4606C90.7151 26.3115 90.6852 26.0728 90.6554 25.7447C90.6554 25.6552 90.6554 25.5955 90.6554 25.5061C90.6554 25.3867 90.5659 25.2376 90.2676 25.2376C90.208 25.2376 90.0588 25.2376 89.9992 25.2078C89.9097 25.1481 89.85 25.0884 89.85 24.9989C89.8202 24.8498 89.85 24.6112 90.208 24.4322C90.4764 24.3129 90.5958 24.1339 90.5958 23.8356C90.7151 21.4492 91.5205 19.0628 93.012 16.6764C93.7875 15.4236 94.6824 14.4094 95.6668 13.6338C95.9949 13.3653 96.3231 13.2162 96.6512 13.1267C97.0688 13.0372 97.4864 13.067 97.8444 13.246C98.083 13.3653 98.262 13.4847 98.4112 13.6636C98.5305 13.8426 98.62 14.0514 98.62 14.3199C98.62 15.1551 98.4112 16.1395 97.9339 17.1835C97.4268 18.2574 96.86 19.2716 96.1739 20.1665C94.8316 21.8967 93.5191 23.2987 92.2662 24.3725C92.0872 24.5217 91.9978 24.641 91.9978 24.82L92.2066 25.9237C92.4154 26.8484 92.7435 27.5941 93.1909 28.1609C93.8174 28.9066 94.4736 29.1751 95.1895 28.9961C95.458 28.9365 95.7265 28.847 95.9353 28.6978C97.039 28.0714 97.9637 27.4152 98.7095 26.7589C99.485 26.0728 100.559 24.9989 101.871 23.5969L103.214 22.2248C103.751 21.6878 104.258 21.1509 104.765 20.614C105.272 20.077 105.719 19.5103 106.107 18.9733C106.197 18.854 106.316 18.7645 106.465 18.7347C106.585 18.7347 106.763 18.7347 107.032 18.8242C107.211 18.8838 107.3 19.0032 107.36 19.1523C107.42 19.4506 107.271 19.8086 106.883 20.2858C105.66 21.7475 104.079 23.418 102.17 25.2972C101.006 26.4904 100.022 27.4152 99.1271 28.1609C98.6796 28.5785 97.9935 29.0558 97.1285 29.5927C96.7705 29.8015 96.3529 29.9805 95.9055 30.07C95.5773 30.1595 95.2194 30.1893 94.8912 30.1893V30.2192ZM91.0432 26.3711C91.1625 26.9379 91.4907 27.6538 92.0276 28.5189C92.3855 29.0856 92.9225 29.5032 93.6384 29.7121C94.3543 29.9507 95.1001 29.9805 95.8458 29.8015C96.2634 29.7121 96.6512 29.5629 96.9793 29.3541C97.8444 28.8172 98.5006 28.3399 98.9481 27.9521C99.8131 27.2064 100.798 26.2816 101.961 25.0884C103.84 23.239 105.421 21.5387 106.644 20.1069C107.062 19.5998 107.092 19.3313 107.062 19.2418C107.062 19.1821 107.032 19.1523 106.942 19.1225C106.644 19.033 106.555 19.033 106.525 19.033C106.465 19.033 106.406 19.0927 106.346 19.1523C105.958 19.7191 105.481 20.2858 104.974 20.8228C104.467 21.3597 103.959 21.9265 103.423 22.4634L102.08 23.8356C100.768 25.2376 99.6938 26.2816 98.8884 26.9975C98.1427 27.6836 97.1881 28.3399 96.0546 28.9663C95.7861 29.1155 95.5177 29.2348 95.2194 29.2944C94.3543 29.5032 93.6086 29.1751 92.9225 28.3399C92.4452 27.7731 92.0872 26.9677 91.8784 25.9833L91.6696 24.8498C91.6398 24.5515 91.7591 24.3129 92.0276 24.1339C93.2506 23.0898 94.5631 21.6878 95.9055 19.9875C96.5617 19.0927 97.1583 18.1083 97.6356 17.0642C98.1129 16.05 98.3217 15.1253 98.2918 14.3199C98.2918 14.1111 98.2322 13.9321 98.1427 13.8128C98.0532 13.6935 97.904 13.5741 97.6952 13.4847C97.3671 13.3355 97.039 13.3057 96.681 13.3653C96.3827 13.425 96.0844 13.5741 95.816 13.8128C94.8614 14.5884 93.9963 15.5727 93.2208 16.7958C91.7591 19.1225 90.9537 21.479 90.8344 23.8058C90.8344 24.1935 90.6256 24.4918 90.2676 24.641C90.1185 24.7007 90.0588 24.7901 90.0887 24.8796C90.0887 24.8796 90.1185 24.8796 90.1781 24.8796C90.5659 24.8796 90.8046 25.0586 90.8642 25.3867C90.8642 25.5061 90.8941 25.5955 90.8941 25.685C90.8941 25.9833 90.9537 26.1921 90.9835 26.3115L91.0432 26.3711ZM92.0574 23.3881C92.0574 23.3881 91.9978 23.3881 91.9679 23.3881C91.7293 23.2688 91.5801 22.9407 92.1171 21.2106C92.5049 19.9875 92.9225 18.9733 93.3699 18.1978C93.8472 17.452 94.235 16.8256 94.5929 16.3185C94.9807 15.7816 95.3984 15.3043 95.8458 14.8568C96.5617 14.2006 96.8302 14.0813 96.9495 14.0514C97.0986 14.0514 97.218 14.0514 97.3075 14.1111C97.4268 14.2006 97.4864 14.3497 97.5163 14.5884C97.5163 15.4534 97.218 16.4975 96.5915 17.6907C95.9651 18.8838 95.1895 20.077 94.2946 21.2106C93.8472 21.7475 93.3998 22.2546 92.9523 22.7021C92.3855 23.2688 92.1469 23.3881 92.0276 23.3881H92.0574ZM97.0986 14.2901C97.0986 14.2901 97.0688 14.2901 97.039 14.2901C96.9495 14.2901 96.7109 14.4392 96.0844 15.0358C95.6668 15.4534 95.2492 15.9307 94.8912 16.4676C94.5333 16.9747 94.1157 17.5713 93.6682 18.3171C93.2208 19.0927 92.8032 20.077 92.4154 21.2702C91.9679 22.6424 92.0574 23.0004 92.0872 23.06C92.1469 23.06 92.3259 22.9109 92.7733 22.4634C93.2208 22.016 93.6384 21.5387 94.0858 20.9719C94.9807 19.8384 95.7563 18.675 96.3529 17.4818C96.9495 16.3185 97.2478 15.3341 97.2478 14.5287C97.2478 14.3497 97.1881 14.2901 97.1583 14.2602C97.1583 14.2602 97.1583 14.2602 97.0986 14.2602V14.2901Z" fill="#231F20"/>
<path d="M105.988 25.6852C106.018 24.5517 106.078 23.269 106.137 21.8968L106.227 20.465L106.316 19.5104C106.376 18.6752 106.465 17.7505 106.555 16.7363C106.734 14.7377 106.793 13.634 106.793 13.4848C106.793 13.3357 106.883 13.2462 107.122 13.1865C107.271 13.1567 107.42 13.1865 107.509 13.1865C107.629 13.2462 107.688 13.3357 107.688 13.455L107.48 18.0488V18.9437C107.42 19.3613 107.39 20.0175 107.301 20.8826L107.211 22.3443C107.211 22.9707 107.181 23.5076 107.122 23.9252C107.122 23.9849 107.122 24.0147 107.122 24.1042C107.122 24.1937 107.181 24.2235 107.211 24.2235C107.271 24.2235 107.301 24.1937 107.301 24.134C107.301 24.0744 107.33 24.0446 107.36 23.9849C107.509 23.6269 107.569 23.4181 107.599 23.3585C107.808 22.7619 108.016 22.2846 108.225 21.8968C108.792 20.7633 109.299 19.8087 109.717 19.063C110.134 18.3172 110.582 17.6013 111.059 16.9152C112.222 15.2746 113.386 13.8726 114.49 12.7092C115.593 11.5459 116.816 10.5615 118.069 9.78593C118.308 9.63678 118.517 9.51746 118.666 9.48763C118.815 9.4578 118.934 9.4578 119.024 9.48763C119.113 9.51746 119.173 9.57712 119.203 9.66661C119.232 9.87541 119.083 10.1439 118.755 10.472C118.397 10.83 117.98 11.1879 117.502 11.5459C117.025 11.9038 116.727 12.1425 116.607 12.232C115.683 12.9479 114.519 14.2306 113.117 16.08C111.715 17.9295 110.671 19.5403 109.955 20.9124C109.269 22.1951 108.613 23.8656 107.987 25.9238C107.927 26.1923 107.838 26.5801 107.718 27.0872C107.659 27.2662 107.599 27.5346 107.539 27.8628C107.48 28.1909 107.36 28.4594 107.301 28.698C107.211 28.9366 107.062 29.0858 106.853 29.1454C106.674 29.1753 106.495 29.1454 106.316 28.9963C106.137 28.8471 106.048 28.698 106.018 28.4892C105.958 27.7434 105.958 26.7889 105.988 25.6554V25.6852Z" fill="#231F20"/>
<path d="M106.733 29.3537C106.554 29.3537 106.376 29.2941 106.226 29.1449C106.018 28.966 105.898 28.787 105.868 28.5483C105.809 27.8026 105.809 26.8779 105.839 25.6847C105.868 24.4617 105.928 23.179 105.988 21.8963L106.077 20.4645L106.167 19.5099C106.226 18.7343 106.286 17.8096 106.405 16.7358C106.584 14.5582 106.644 13.6335 106.644 13.5141C106.644 13.3948 106.644 13.1562 107.091 13.0667C107.27 13.007 107.449 13.0667 107.599 13.0965C107.748 13.1562 107.867 13.3053 107.867 13.5141L107.628 19.0028C107.628 19.4204 107.569 20.0767 107.509 20.9716L107.42 22.4332C107.42 23.0298 107.39 23.4773 107.36 23.8352C107.509 23.4475 107.509 23.3878 107.509 23.3878C107.748 22.7614 107.927 22.2543 108.135 21.8963C108.672 20.8224 109.18 19.8679 109.627 19.0625C110.045 18.2869 110.522 17.571 110.969 16.9147C112.162 15.2741 113.326 13.8423 114.43 12.6789C115.533 11.5155 116.756 10.5013 118.039 9.72576C118.278 9.54678 118.486 9.45729 118.695 9.39763C118.874 9.3678 119.023 9.3678 119.143 9.39763C119.351 9.48712 119.411 9.60644 119.411 9.69593C119.471 9.9644 119.292 10.2627 118.904 10.6505C118.546 10.9786 118.128 11.3366 117.651 11.7244C117.174 12.0823 116.876 12.3209 116.756 12.4104C115.832 13.1264 114.668 14.409 113.296 16.2585C111.924 18.0781 110.85 19.7187 110.134 21.0909C109.478 22.3438 108.822 24.0142 108.195 26.0725C108.135 26.3409 108.046 26.7287 107.927 27.2358L107.748 28.0114C107.658 28.3395 107.569 28.6378 107.479 28.8466C107.33 29.2046 107.091 29.3537 106.942 29.3836C106.883 29.3836 106.853 29.3836 106.793 29.3836L106.733 29.3537ZM106.137 25.7145C106.137 26.8779 106.137 27.8026 106.167 28.5483C106.167 28.6975 106.256 28.8168 106.405 28.9361C106.525 29.0555 106.674 29.0853 106.793 29.0555C106.942 29.0256 107.032 28.9063 107.121 28.6975C107.211 28.4887 107.3 28.1904 107.36 27.8921L107.539 27.1165C107.658 26.6094 107.748 26.2216 107.807 25.9532C108.434 23.8651 109.12 22.1648 109.776 20.9119C110.492 19.5398 111.566 17.8991 112.938 16.0497C114.31 14.2002 115.503 12.8877 116.458 12.1718C116.607 12.0525 116.905 11.8437 117.353 11.4857C117.83 11.0979 118.248 10.74 118.576 10.4118C118.994 9.99423 118.994 9.81525 118.994 9.75559C118.994 9.75559 118.994 9.72576 118.904 9.69593C118.844 9.69593 118.725 9.69593 118.636 9.69593C118.486 9.72576 118.307 9.81525 118.069 9.9644C116.786 10.74 115.593 11.7244 114.489 12.8877C113.386 14.0511 112.252 15.4531 111.059 17.0937C110.611 17.75 110.164 18.4659 109.746 19.2415C109.299 20.0469 108.792 21.0014 108.285 22.0753C108.076 22.4332 107.897 22.9105 107.658 23.5071C107.658 23.5071 107.658 23.5668 107.42 24.1335C107.42 24.1634 107.42 24.223 107.36 24.2827C107.3 24.402 107.211 24.4617 107.151 24.4617H107.091H107.002C106.942 24.4318 106.912 24.3423 106.883 24.2529C106.883 24.1634 106.883 24.1037 106.883 24.044C106.912 23.6861 106.942 23.179 106.972 22.4929L107.062 21.0014C107.121 20.1363 107.181 19.4801 107.181 19.0625L107.42 13.6036C107.42 13.6036 107.36 13.4843 107.33 13.4843C107.241 13.4545 107.151 13.4247 107.032 13.4843C106.793 13.544 106.823 13.6036 106.823 13.6335C106.823 13.8124 106.733 15.0355 106.584 16.9147C106.465 18.0184 106.405 18.9133 106.346 19.6889L106.256 20.6435L106.167 22.0753C106.107 23.358 106.047 24.6406 106.018 25.8637L106.137 25.7145Z" fill="#231F20"/>
<path d="M45.9703 79.6171C44.5086 79.9452 43.6137 79.2889 43.226 77.6483C43.047 76.8429 42.9575 75.6199 43.0171 74.0091C43.0768 72.279 43.2856 70.0119 43.6734 67.1781C44.0314 64.3442 44.6876 59.9294 45.5825 53.9336C45.7317 52.8299 45.9106 51.3385 46.0896 49.4592C46.2686 47.5501 46.3879 46.3569 46.3879 45.8796C46.3879 45.7006 46.4774 45.6111 46.6265 45.5813C46.8354 45.5216 46.9845 45.6708 47.0442 45.9989V46.3271C47.1337 47.4009 47.1337 48.087 47.1038 48.3853C46.8652 51.5473 46.716 53.5757 46.5967 54.4109C46.4476 55.5146 46.2388 56.8868 46.0001 58.5274C45.7615 60.1979 45.5527 61.7789 45.314 63.2704L44.6578 67.9835C43.9717 72.3386 43.8225 75.3216 44.2103 76.9921C44.5086 78.2449 45.0754 78.7818 45.9405 78.573C46.3581 78.4835 47.0143 78.1554 47.9689 77.5886C48.9234 77.0219 49.8482 76.3955 50.7729 75.7392C52.5627 74.4565 53.6962 73.681 54.1138 73.4423C54.263 73.3528 55.5158 72.4281 57.932 70.6681L59.9605 69.117C60.5869 68.5801 61.094 68.1923 61.5116 67.894C61.7204 67.7448 61.8994 67.6255 62.0187 67.5658C62.138 67.5062 62.2573 67.5062 62.3468 67.5957C62.5556 67.7747 62.5258 68.0431 62.1977 68.4011C61.8696 68.759 61.3624 69.2363 60.6465 69.8329L60.0201 70.3698C58.6778 71.5332 56.4405 73.1738 53.2488 75.3514C50.0868 77.529 47.9391 78.8117 46.8354 79.2889C46.4774 79.4381 46.1791 79.5276 45.9405 79.5872L45.9703 79.6171Z" fill="#231F20"/>
<path d="M45.2842 79.856C44.1506 79.856 43.4347 79.1401 43.0768 77.6784C42.8978 76.8432 42.8083 75.65 42.8381 73.9795C42.8978 72.2792 43.1066 69.9823 43.4944 67.1485C43.8523 64.2848 44.5086 59.8402 45.4035 53.9041C45.5526 52.7706 45.7316 51.2791 45.9106 49.4296C46.0896 47.5503 46.2089 46.3572 46.2089 45.8799C46.2089 45.6114 46.358 45.4623 46.5967 45.4324C46.6862 45.4026 46.8055 45.4324 46.895 45.4921C47.0143 45.5816 47.1038 45.7307 47.1634 45.9694V46.2975C47.2529 47.4609 47.2529 48.0873 47.2231 48.3856C46.9845 51.5475 46.8353 53.576 46.716 54.441C46.5668 55.5447 46.358 56.9169 46.1194 58.5575C45.8808 60.228 45.672 61.809 45.4333 63.3005L44.7771 68.0136C44.091 72.3091 43.9418 75.3219 44.3296 76.9625C44.5981 78.1259 45.1052 78.6031 45.8808 78.454C46.2686 78.3645 46.9248 78.0364 47.8495 77.4696C48.7743 76.9028 49.699 76.3062 50.6535 75.6202C52.4433 74.3375 53.5768 73.5619 54.0243 73.3233C54.1436 73.2636 55.1876 72.488 57.8127 70.5491L59.8411 68.9979C60.4377 68.4908 60.9448 68.1031 61.3922 67.7749C61.6309 67.596 61.78 67.4766 61.8993 67.417C62.0783 67.3275 62.2573 67.3573 62.3766 67.5065C62.4661 67.596 62.5258 67.6854 62.5556 67.8346C62.5556 68.0434 62.4661 68.2522 62.2573 68.5207C61.959 68.8786 61.4519 69.3559 60.7062 69.9525L60.0797 70.4894C58.7672 71.623 56.53 73.2636 53.3084 75.471C50.1464 77.6188 47.9688 78.9611 46.8651 79.4085C46.537 79.5577 46.2089 79.6472 45.9404 79.7367C45.7018 79.7963 45.4333 79.8262 45.2245 79.8262L45.2842 79.856ZM46.6862 45.7307C46.6862 45.7307 46.6862 45.7307 46.6563 45.7307C46.5967 45.7307 46.537 45.7307 46.537 45.8799C46.537 46.3572 46.4475 47.5503 46.2387 49.4594C46.0597 51.3089 45.8808 52.8302 45.7316 53.9637C44.8367 59.8999 44.1805 64.3445 43.8225 67.2082C43.4646 70.042 43.2259 72.3389 43.1663 74.0094C43.1364 75.6202 43.1961 76.8432 43.3751 77.6188C43.733 79.1699 44.5384 79.7963 45.9404 79.4682C46.2089 79.4085 46.5072 79.319 46.8353 79.1699C47.939 78.7225 50.0868 77.4099 53.2487 75.2622C56.4703 73.0548 58.6777 71.4142 59.9902 70.2806L60.6167 69.7437C61.3624 69.1471 61.8397 68.6698 62.138 68.3417C62.3468 68.1031 62.3766 67.9539 62.3766 67.8644C62.3766 67.8346 62.3766 67.7749 62.2871 67.7451C62.2573 67.7153 62.2275 67.6854 62.138 67.7451C62.0485 67.8048 61.8993 67.8942 61.6607 68.0732C61.2431 68.3715 60.736 68.7891 60.1394 69.2962L58.0811 70.8474C55.8439 72.488 54.4121 73.5321 54.2629 73.6216C53.8155 73.89 52.7118 74.6358 50.922 75.9185C49.9674 76.5747 49.0129 77.2011 48.0882 77.7679C47.1038 78.3645 46.4475 78.6926 46.0299 78.7821C45.0455 78.9909 44.4191 78.4242 44.1208 77.0818C43.733 75.4113 43.8822 72.3389 44.5683 68.0136L45.2245 63.3005C45.4333 61.809 45.672 60.1982 45.9106 58.5575C46.1492 56.9169 46.3282 55.5447 46.5072 54.441C46.6265 53.6058 46.8055 51.5774 47.0143 48.4154C47.0143 48.1469 47.0143 47.5205 47.0143 46.387V46.0589C46.9248 45.8799 46.8651 45.8202 46.8353 45.7904C46.8353 45.7904 46.8055 45.7904 46.7757 45.7904L46.6862 45.7307Z" fill="#231F20"/>
<path d="M69.3866 63.6586C69.3866 62.9129 69.3866 62.1671 69.4761 61.3617C69.5656 60.5563 69.5358 60.1685 69.4165 60.1685C69.327 60.1685 69.1778 60.4071 68.969 60.8546C68.7602 61.302 68.5514 61.839 68.3128 62.4057L67.2389 64.8518C66.7616 65.9555 66.4037 66.7609 66.1352 67.3277C65.0613 69.714 64.2857 71.0862 63.8085 71.5038C63.4803 71.8021 63.182 71.9811 62.9136 72.0408C62.4065 72.1601 62.0485 71.832 61.8695 71.0266C61.6906 70.1913 61.6906 69.028 61.9292 67.5365C62.138 66.045 62.5556 64.4938 63.0926 62.883C63.8085 60.7949 64.4349 59.1245 65.0017 57.8716C65.5684 56.6188 66.2247 55.7239 67.0002 55.1273C67.3582 54.8588 67.7162 54.7097 68.0443 54.6202C68.6707 54.471 69.2673 54.6202 69.8042 55.008C70.3412 55.4256 70.6991 55.9923 70.8781 56.7679C71.0571 57.5137 71.1168 58.3787 71.0571 59.3333C71.0273 60.2878 70.8781 61.0336 70.6097 61.5705C70.4605 61.839 70.4307 62.704 70.4307 64.1657C70.4307 65.6274 70.5202 66.6117 70.6693 67.1785C70.7886 67.6856 70.9378 68.1331 71.1168 68.5209C71.3554 69.028 71.7432 69.2368 72.2205 69.1174C72.8767 68.9683 73.712 68.3419 74.6963 67.2083C75.6807 66.0748 76.6353 64.7623 77.6196 63.241C78.5742 61.7197 79.3796 60.2878 80.0359 58.9753C80.2148 58.6174 80.4236 58.2892 80.7219 57.9909C80.8413 57.8716 80.9308 57.8418 81.0501 57.8716C81.2887 58.0208 81.1694 58.5875 80.7219 59.5719C80.2745 60.5563 79.7376 61.5705 79.141 62.5847C77.8583 64.7921 76.6651 66.5819 75.5017 67.8944C74.5174 69.0578 73.4733 69.7737 72.4293 70.0123C71.773 70.1615 71.1764 70.072 70.6991 69.7439C70.2219 69.4157 69.8639 68.8191 69.6849 68.0137C69.6253 67.6856 69.5656 67.3277 69.5358 66.9399C69.4761 65.508 69.4463 64.4043 69.4165 63.6586H69.3866ZM63.7488 69.8334C64.0471 69.3263 64.3454 68.6998 64.6437 68.0137L67.7162 61.0037C68.0145 60.3177 68.4917 59.3034 69.1182 57.9611C69.2077 57.7523 69.2971 57.6032 69.3866 57.4838C69.4761 57.3645 69.6253 57.3049 69.8341 57.275C70.0429 57.275 70.1324 57.096 70.0727 56.8574C69.9832 56.5293 69.8341 56.2608 69.5954 55.9923C69.2375 55.5449 68.8199 55.3957 68.4023 55.4852C68.1934 55.5449 67.9548 55.6642 67.7162 55.873C67.1494 56.3801 66.6423 57.0662 66.2247 57.9014C65.7772 58.7367 65.3596 59.7211 64.9718 60.8248C64.3752 62.4654 63.8681 64.2552 63.4505 66.2538C62.8539 69.028 62.7346 70.4598 63.0329 70.5194C63.2119 70.5791 63.4207 70.3405 63.719 69.8334H63.7488Z" fill="#231F20"/>
<path d="M62.7644 72.2197C62.4065 72.2197 61.9889 71.981 61.78 71.0563C61.6011 70.2211 61.6011 69.0279 61.8397 67.5066C62.0485 66.0151 62.4661 64.4341 63.0031 62.8233C63.719 60.7352 64.3454 59.0647 64.9122 57.8119C65.4789 56.5292 66.165 55.6045 66.9406 55.0079C67.3284 54.7394 67.6863 54.5604 68.0443 54.471C68.7304 54.3218 69.3568 54.471 69.9236 54.8886C70.4903 55.3062 70.8781 55.9326 71.0571 56.738C71.2361 57.4838 71.2957 58.3488 71.2361 59.3332C71.2062 60.3176 71.0273 61.0633 70.7588 61.6301C70.6693 61.8091 70.5798 62.3758 70.6097 64.1656C70.6097 65.5975 70.6991 66.6117 70.8483 67.1486C70.9676 67.6557 71.1168 68.1032 71.2659 68.4611C71.4747 68.9086 71.773 69.0577 72.2205 68.9682C72.8469 68.8191 73.6523 68.1927 74.6068 67.1188C75.5614 66.0151 76.5458 64.7026 77.5003 63.1514C78.4549 61.6003 79.2603 60.1684 79.9165 58.8858C80.0955 58.5278 80.3342 58.1699 80.6325 57.8417C80.8413 57.6329 81.0202 57.6627 81.1097 57.6926C81.4379 57.9014 81.3484 58.498 80.8413 59.6017C80.3938 60.5861 79.8569 61.6003 79.2305 62.6145C77.9776 64.8219 76.7248 66.6117 75.5614 67.9242C74.5472 69.1174 73.5031 69.8333 72.3994 70.0719C71.6835 70.2211 71.0869 70.1316 70.55 69.7736C70.0429 69.4157 69.6849 68.7892 69.4761 67.954C69.4165 67.6259 69.3568 67.2679 69.327 66.8503C69.2673 65.4185 69.2375 64.3148 69.2077 63.569C69.2077 62.8531 69.2077 62.1074 69.2971 61.2423C69.3568 60.6756 69.3568 60.4071 69.327 60.2878C69.2673 60.3773 69.1778 60.5264 69.0585 60.7949C68.8497 61.2125 68.6409 61.7196 68.4023 62.346L67.3284 64.8219C66.8511 65.8958 66.4932 66.731 66.2247 67.2978C65.1508 69.6543 64.3752 71.0861 63.8681 71.5336C63.54 71.8319 63.2119 72.0407 62.9136 72.1004C62.8539 72.1004 62.7644 72.1004 62.6749 72.1004L62.7644 72.2197ZM68.5514 54.7394C68.4023 54.7394 68.2531 54.7394 68.0741 54.7991C67.7758 54.8587 67.4477 55.0377 67.0897 55.2764C66.344 55.8431 65.6877 56.738 65.1508 57.961C64.584 59.2139 63.9576 60.8844 63.2417 62.9426C62.7048 64.5236 62.2872 66.1046 62.0783 67.5662C61.8695 69.0279 61.8397 70.1912 62.0187 70.9967C62.2275 71.9214 62.6153 71.9512 62.8837 71.8915C63.1224 71.8319 63.3909 71.6529 63.6892 71.3844C64.0173 71.0861 64.6437 70.1614 65.9562 67.2381C66.2247 66.7012 66.5826 65.8659 67.0599 64.7622L68.1338 62.3162C68.3724 61.6898 68.5812 61.1827 68.79 60.7352C69.0883 60.1088 69.2077 59.9895 69.3568 59.9895C69.3568 59.9895 69.4761 59.9895 69.506 60.0491C69.6253 60.1684 69.6551 60.4369 69.5656 61.3318C69.4761 62.167 69.4463 62.9426 69.4761 63.6287C69.4761 64.3744 69.5358 65.4483 69.5954 66.91C69.5954 67.2978 69.6551 67.6557 69.7446 67.954C69.9236 68.7296 70.2517 69.2665 70.6991 69.5947C71.1466 69.8929 71.6835 69.9824 72.31 69.8631C73.354 69.6245 74.3384 68.9384 75.3228 67.8049C76.4861 66.4924 77.6793 64.7324 78.962 62.525C79.5586 61.5108 80.0955 60.5264 80.543 59.542C81.1694 58.2295 80.9606 58.0505 80.9308 58.0207C80.9308 58.0207 80.8711 58.0207 80.8114 58.1102C80.543 58.4085 80.3342 58.7366 80.1552 59.0647C79.5288 60.3474 78.6935 61.8091 77.739 63.3304C76.7546 64.8816 75.7702 66.2239 74.8157 67.3276C73.8014 68.4909 72.9662 69.1174 72.2801 69.2665C71.7134 69.3858 71.2957 69.1472 70.9974 68.6103C70.8185 68.2225 70.6693 67.7452 70.55 67.2381C70.4307 66.6713 70.3412 65.6571 70.3114 64.1955C70.2815 62.1969 70.4008 61.7196 70.4903 61.5406C70.729 61.0037 70.8781 60.2878 70.9378 59.363C70.9676 58.4085 70.9378 57.5733 70.7588 56.8573C70.5798 56.1414 70.2517 55.5747 69.7446 55.1869C69.3866 54.9184 68.969 54.7693 68.5514 54.7693V54.7394ZM63.0926 70.6984C63.0926 70.6984 63.0329 70.6984 63.0031 70.6984C62.7346 70.6387 62.4661 70.2211 63.3312 66.2537C63.7786 64.2551 64.2857 62.4057 64.8823 60.7949C65.2701 59.6912 65.7176 58.7068 66.1352 57.8417C66.5826 56.9767 67.0897 56.2906 67.6565 55.7536C67.8951 55.515 68.1636 55.3957 68.4023 55.336C68.9094 55.2167 69.327 55.4255 69.7446 55.9028C69.9832 56.1713 70.1622 56.4994 70.2517 56.8275C70.2815 57.0065 70.2517 57.1556 70.192 57.275C70.1324 57.3644 70.0131 57.4241 69.8937 57.4539C69.7446 57.4539 69.6253 57.5136 69.5358 57.6031C69.4463 57.6926 69.3568 57.8417 69.2673 58.0505C68.6409 59.3929 68.1636 60.4071 67.8653 61.0932L64.7929 68.1032C64.4946 68.7892 64.1963 69.4157 63.898 69.9228C63.5997 70.4597 63.361 70.6984 63.1224 70.6984H63.0926ZM68.6409 55.6343C68.6409 55.6343 68.5216 55.6343 68.4321 55.6343C68.2531 55.6641 68.0443 55.8133 67.8057 55.9923C67.2687 56.4994 66.7616 57.1556 66.344 57.9909C65.9264 58.8261 65.4789 59.8105 65.0911 60.8844C64.4946 62.4952 63.9874 64.285 63.5698 66.2835C62.8241 69.8035 63.0031 70.3106 63.0627 70.3702C63.0627 70.3702 63.2119 70.3702 63.5698 69.7438C63.8681 69.2367 64.1664 68.6103 64.4349 67.954L67.5074 60.9142C67.8057 60.2281 68.2829 59.2139 68.9094 57.8715C68.9988 57.6627 69.1182 57.4838 69.2077 57.3644C69.327 57.2153 69.506 57.1258 69.7446 57.1258C69.8042 57.1258 69.8341 57.1258 69.8639 57.0661C69.8639 57.0363 69.8639 56.9468 69.8639 56.8573C69.8043 56.559 69.6551 56.2906 69.4165 56.0519C69.148 55.7238 68.8795 55.5747 68.5812 55.5747L68.6409 55.6343Z" fill="#231F20"/>
<path d="M79.5584 65.3586C79.5584 65.3586 79.5584 65.1796 79.5584 65.0006C79.5584 64.6725 79.5883 64.3742 79.6181 64.1057C79.6479 63.8372 79.6777 63.5986 79.7076 63.3898C79.7672 62.5546 79.9462 61.1824 80.2445 59.2733L80.5428 57.3344C80.6025 56.8869 80.692 56.2307 80.8709 55.3358C81.1991 53.4565 81.378 52.1141 81.4377 51.3684C81.4377 51.1596 81.4675 50.9806 81.557 50.8016C81.6465 50.6227 81.7658 50.5332 81.915 50.563C82.0641 50.563 82.1834 50.6525 82.2133 50.8911C82.2431 51.1298 82.2431 51.5772 82.1834 52.2036L81.9448 54.2917C81.7957 55.7534 81.6465 56.8571 81.557 57.6028L81.4377 58.3187C81.3184 59.0048 81.2587 59.4523 81.2289 59.6014C81.1991 59.7506 81.1991 59.8401 81.2289 59.8997C81.2289 59.9594 81.2886 59.9892 81.3482 59.9594C81.4377 59.9594 81.5272 59.8699 81.6167 59.6909C81.8851 58.9452 82.3326 57.9906 82.8994 56.8869C84.0926 54.59 85.2261 52.7107 86.3596 51.3386C86.8071 50.8016 87.2545 50.4735 87.6423 50.384C87.9406 50.3244 88.2091 50.384 88.4477 50.563C88.6863 50.742 88.8653 51.0403 89.0145 51.4281C89.0741 51.6369 89.1338 52.0545 89.1636 52.6213C89.1636 53.2178 89.1934 53.725 89.1934 54.1724C89.1934 54.6198 89.1934 54.9778 89.1934 55.2164C89.1934 55.5744 89.1934 56.0815 89.1934 56.7378C89.1934 57.394 89.1934 57.9608 89.2233 58.4082C89.2233 58.8258 89.3426 59.4821 89.5216 60.3173C89.7005 61.0929 89.8497 61.5702 90.0287 61.7492C90.2375 62.0773 90.4761 62.1966 90.7744 62.1071C90.8341 62.1071 90.9534 62.0475 91.1025 61.958C91.6395 61.6 92.0273 61.3017 92.2062 61.0929C93.0415 60.198 93.996 59.0645 95.0401 57.6923C96.0841 56.2903 96.6807 55.3358 96.8299 54.7988C96.8895 54.59 96.9492 54.411 97.0387 54.2917C97.0983 54.1724 97.2475 54.1426 97.4265 54.1426C97.6054 54.1426 97.7247 54.2917 97.7844 54.5304C97.8142 54.6795 97.7844 54.8585 97.7546 55.127C97.6353 55.5147 97.3668 56.1113 96.8895 56.8273C96.1736 57.9906 95.1594 59.3329 93.8469 60.8841C92.8625 62.0773 91.9079 62.7634 90.9534 62.9722C90.0883 63.181 89.4022 62.8529 88.925 62.0475C88.6863 61.6597 88.5372 61.1824 88.388 60.6156C88.1792 59.6909 88.0599 58.1994 88.0301 56.2307V54.2321C88.0301 52.8897 87.9704 52.0843 87.9108 51.7562C87.8511 51.5474 87.7318 51.4579 87.6125 51.4877C87.3738 51.5474 86.986 52.0247 86.4193 52.8897C84.2715 56.2903 82.6607 59.5119 81.5272 62.5247C81.3184 63.0915 81.0499 63.9267 80.7516 65.0901C80.6621 65.4481 80.513 65.6569 80.3638 65.6867C80.2445 65.6867 80.0954 65.6867 79.8567 65.5972C79.6777 65.5674 79.5584 65.4481 79.4988 65.2691L79.5584 65.3586Z" fill="#231F20"/>
<path d="M80.3045 65.9552C80.3045 65.9552 80.036 65.9254 79.8272 65.8359C79.5886 65.7762 79.4394 65.6271 79.3798 65.3885C79.3798 65.3288 79.3798 65.2095 79.3798 65.0007C79.3798 64.6427 79.4096 64.3444 79.4394 64.0759V63.9865C79.4693 63.7478 79.4991 63.539 79.5289 63.36C79.5886 62.5546 79.7676 61.2123 80.0659 59.2137L80.3642 57.2748C80.4238 56.8571 80.5133 56.2009 80.6923 55.2762C80.9906 53.4864 81.1696 52.1142 81.2292 51.3386C81.2292 51.1298 81.2591 50.921 81.3485 50.7122C81.4679 50.4437 81.6767 50.3841 81.8258 50.3841C81.8258 50.3841 81.8258 50.3841 81.8855 50.3841C82.0048 50.3841 82.2136 50.4437 82.3031 50.8315C82.3628 51.0702 82.3628 51.5474 82.2733 52.2037L82.0346 54.2918C81.8557 55.9324 81.7363 56.9466 81.6468 57.6029L81.4977 58.6469C81.4082 59.154 81.3485 59.4822 81.3485 59.6313C81.3485 59.7208 81.3485 59.7506 81.3485 59.8103C81.3485 59.8103 81.4082 59.7208 81.4679 59.6611C81.7363 58.9154 82.1838 57.9608 82.7505 56.8571C83.9437 54.5603 85.1071 52.681 86.2108 51.279C86.6881 50.7122 87.1654 50.3543 87.583 50.2648C87.9409 50.1753 88.2392 50.2648 88.5077 50.4736C88.7762 50.6824 88.985 50.9807 89.1341 51.3983C89.1938 51.6369 89.2534 52.0247 89.2833 52.6511C89.2833 53.1881 89.3131 53.725 89.3131 54.2023C89.3131 54.6497 89.3131 55.0077 89.3131 55.2463C89.3131 55.6043 89.3131 56.1114 89.3131 56.7975C89.3131 57.5432 89.3131 58.0503 89.3429 58.4381C89.3429 58.8557 89.4622 59.512 89.6412 60.3174C89.85 61.2421 89.9992 61.5702 90.1185 61.6896C90.3571 62.0475 90.5659 62.0475 90.7151 62.0177C90.7748 62.0177 90.9239 61.9282 91.0134 61.8984C91.5205 61.5404 91.9083 61.272 92.0873 61.0631C92.9225 60.1981 93.8174 59.0645 94.8913 57.6625C95.9353 56.2904 96.5319 55.3358 96.681 54.8287C96.7407 54.5901 96.8302 54.4111 96.9197 54.2918C96.9793 54.2023 97.0987 54.083 97.3373 54.083C97.3671 54.083 97.397 54.083 97.4566 54.083C97.6356 54.083 97.8742 54.2321 97.9339 54.5901C97.9637 54.7691 97.9339 54.9779 97.9041 55.2463C97.7847 55.664 97.5163 56.2307 97.039 57.0063C96.2933 58.1697 95.279 59.5418 93.9665 61.093C92.9822 62.2862 91.9679 63.0319 90.9836 63.2407C90.0588 63.4495 89.3131 63.1214 88.806 62.2563C88.5673 61.8387 88.3884 61.3614 88.2691 60.7947C88.0602 59.8401 87.9409 58.3486 87.9111 56.3799V54.3813C87.9111 53.0688 87.8514 52.2335 87.7918 51.9651C87.7918 51.9651 87.7321 51.8159 87.6725 51.8159C87.583 51.8159 87.3145 51.9949 86.5688 53.1582C84.4508 56.529 82.8102 59.7805 81.7065 62.7933C81.4977 63.36 81.2591 64.1953 80.9608 65.3288C80.8414 65.7464 80.6923 65.9851 80.4537 66.0447C80.4238 66.0447 80.394 66.0447 80.3343 66.0447L80.3045 65.9552ZM81.8855 50.7122C81.8855 50.7122 81.7065 50.7122 81.6468 50.8912C81.5872 51.0403 81.5275 51.2193 81.5275 51.3983C81.4679 52.2037 81.2889 53.5759 80.9608 55.3955C80.8116 56.3202 80.6923 56.9466 80.6326 57.3941L80.3343 59.3628C80.036 61.3316 79.8571 62.6739 79.7974 63.4794C79.7974 63.6583 79.7676 63.8671 79.7377 64.1058V64.1953C79.7079 64.4339 79.6781 64.7322 79.6781 65.0902C79.6781 65.2691 79.6781 65.3885 79.6781 65.4183C79.6781 65.4183 79.7676 65.5973 79.9167 65.6271C80.1852 65.7464 80.3045 65.7464 80.3343 65.7166C80.4537 65.7166 80.5431 65.5078 80.6326 65.2095C80.9309 64.0461 81.1994 63.2109 81.4082 62.6441C82.5119 59.6313 84.1525 56.35 86.3003 52.9793C87.0759 51.7563 87.404 51.5474 87.583 51.4878C87.6725 51.458 87.9409 51.4878 88.0602 51.8457C88.1199 52.1739 88.1796 52.9793 88.1796 54.3514V56.35C88.2094 58.3188 88.3287 59.7805 88.5375 60.7052C88.6568 61.2421 88.8358 61.7194 89.0446 62.0774C89.4921 62.8231 90.0887 63.1214 90.8941 62.9126C91.789 62.7038 92.7435 62.0177 93.6981 60.8543C94.9807 59.333 96.0248 57.9608 96.7407 56.8273C97.1882 56.1114 97.4864 55.5446 97.5759 55.1568C97.6356 54.948 97.6356 54.7691 97.6058 54.6497C97.5461 54.4409 97.4566 54.3813 97.3671 54.3813C97.1881 54.3514 97.1583 54.4111 97.1285 54.4409C97.0688 54.5304 97.0092 54.6796 96.9197 54.9182C96.7705 55.4551 96.1739 56.4097 95.1001 57.8415C94.0262 59.2734 93.1015 60.3771 92.2662 61.2719C92.0574 61.4808 91.6696 61.7791 91.1327 62.137C90.9239 62.2265 90.8344 62.2862 90.7449 62.316C90.5063 62.3757 90.1185 62.316 89.8202 61.8685C89.6711 61.6597 89.4921 61.1825 89.3131 60.3771C89.1341 59.512 89.0148 58.8856 89.0148 58.4381C89.0148 58.0205 88.985 57.5134 88.985 56.7677C88.985 56.1114 88.985 55.6043 88.985 55.2463C88.985 55.0077 88.985 54.6497 88.985 54.2023C88.985 53.725 88.985 53.1881 88.9551 52.6511C88.9551 52.0844 88.8955 51.6966 88.8358 51.4878C88.7165 51.1298 88.5375 50.8614 88.3287 50.7122C88.1199 50.5631 87.9111 50.5034 87.6426 50.5631C87.2847 50.6526 86.8671 50.9508 86.4196 51.4878C85.3159 52.86 84.1525 54.7392 82.9892 57.0063C82.4224 58.0802 82.0048 59.0347 81.7065 59.8103C81.5872 60.0191 81.4679 60.1384 81.3187 60.1682C81.2591 60.1682 81.1696 60.1682 81.1397 60.1682C81.0801 60.1384 81.0502 60.0788 81.0204 60.0191C81.0204 59.9296 81.0204 59.8103 81.0204 59.6313C81.0204 59.512 81.1099 59.1839 81.1696 58.6768L81.3187 57.6327C81.4082 56.9466 81.5275 55.9623 81.7065 54.3216L81.9451 52.2335C82.0346 51.458 82.0346 51.1298 81.975 50.9807C81.9451 50.8315 81.8855 50.7719 81.8258 50.7719L81.8855 50.7122Z" fill="#231F20"/>
<path d="M107.539 70.4301C107.539 70.4301 107.39 70.2213 107.33 69.9826C107.211 69.4457 107.211 68.0139 107.36 65.6871L107.42 64.6729L107.539 62.9428C107.599 61.6601 107.688 60.4371 107.807 59.2738C107.957 57.9314 108.136 56.3803 108.344 54.68C108.553 52.9498 108.732 51.5777 108.852 50.5635C109.06 49.1018 109.299 47.6401 109.567 46.1486L110.045 43.6429C110.045 43.6429 110.045 43.4938 110.045 43.4043C110.045 43.3148 109.985 43.285 109.955 43.285C109.896 43.285 109.836 43.3745 109.776 43.5236C109.06 44.9853 108.374 46.4171 107.748 47.7893C107.658 47.9086 107.658 48.0578 107.688 48.2069C107.718 48.3561 107.807 48.5052 107.957 48.6544C108.195 48.893 108.374 49.1615 108.434 49.4598C108.494 49.758 108.434 50.0564 108.315 50.3845C108.315 50.3845 108.285 50.474 108.225 50.5336C108.195 50.5933 108.136 50.6529 108.076 50.6231C108.016 50.6231 107.957 50.5336 107.957 50.474C107.957 50.3845 107.957 50.3546 107.957 50.3248C107.957 50.116 107.957 49.937 107.897 49.7879C107.867 49.5791 107.748 49.4001 107.599 49.2211C107.599 49.2211 107.509 49.1615 107.45 49.072C107.36 48.9825 107.3 48.9526 107.241 48.9825C107.181 48.9825 107.092 49.1018 107.002 49.3106C106.316 50.7723 105.63 52.0848 104.974 53.278C103.989 55.1274 102.975 56.768 101.961 58.2297C101.215 59.2737 100.529 60.0792 99.8728 60.6757C99.2165 61.2723 98.5304 61.6601 97.7847 61.8093C97.3671 61.8988 97.0091 61.9286 96.6512 61.8988C96.0247 61.8391 95.637 61.3917 95.458 60.5863C95.3387 60.109 95.3387 59.6019 95.3685 59.0053C95.4281 58.4087 95.5475 57.8717 95.7264 57.3348C96.9196 53.8447 98.9779 51.1601 101.871 49.3404C102.886 48.714 103.81 48.2964 104.586 48.1174C105.093 47.9981 105.57 47.9384 105.958 47.9683C106.018 47.9683 106.077 47.9683 106.197 47.9683C106.376 47.9384 106.525 47.7595 106.644 47.491L108.225 44.0904L111.268 37.5577C111.506 36.9909 111.745 36.2452 111.954 35.3503L112.133 34.6344C112.789 32.1287 113.445 30.1301 114.042 28.6684L114.489 27.5647C114.788 26.819 115.026 26.282 115.205 25.9837C115.384 25.6854 115.593 25.5363 115.832 25.5363C116.19 25.5064 116.398 25.5959 116.458 25.8047C116.458 25.9241 116.458 26.0434 116.458 26.1627C116.398 26.6102 116.249 27.1769 116.041 27.863L115.832 28.5491C115.593 29.444 115.235 30.5477 114.758 31.89L114.489 32.6656C114.489 32.6656 114.281 33.2324 113.923 34.0676L113.475 35.1713C113.415 35.3503 113.237 35.7977 112.968 36.4838C112.7 37.1699 112.521 37.7963 112.371 38.3929C112.013 39.8247 111.685 41.3461 111.357 42.8674C111.029 44.4185 110.761 45.8205 110.582 47.1032C110.164 49.6686 109.896 51.6075 109.746 52.92L109.299 56.4101C108.941 59.572 108.673 62.0777 108.523 63.957C108.374 65.8363 108.374 67.0891 108.523 67.7156C108.583 67.984 108.673 68.1034 108.792 68.1332C108.881 68.1332 108.911 68.2227 108.941 68.342C108.941 68.4613 108.971 68.5806 108.971 68.7596C108.971 69.2667 108.881 69.6843 108.762 69.9528C108.643 70.2213 108.434 70.4003 108.136 70.4301C107.867 70.4301 107.688 70.4301 107.599 70.3704L107.539 70.4301ZM103.303 54.1132C103.423 53.9342 103.751 53.3078 104.317 52.2936C104.884 51.2495 105.361 50.2652 105.809 49.2808C105.809 49.2808 105.869 49.1913 105.898 49.1018C105.928 49.0123 105.928 48.9228 105.898 48.8333C105.809 48.714 105.6 48.6842 105.272 48.7737C104.854 48.8632 104.347 49.1018 103.721 49.4598C103.094 49.8177 102.468 50.2055 101.931 50.5933C101.334 50.9811 100.738 51.5777 100.082 52.3234C98.2023 54.4413 97.039 56.6487 96.6213 59.0053C96.5318 59.4229 96.5318 59.8107 96.6213 60.1388C96.6213 60.2581 96.7108 60.4371 96.8003 60.6459C96.9495 60.974 97.2179 61.0934 97.6057 61.0039C98.1427 60.8846 98.7392 60.4669 99.3955 59.7809C100.827 58.2894 102.14 56.4101 103.363 54.143L103.303 54.1132Z" fill="#231F20"/>
<path d="M107.897 70.6382C107.688 70.6382 107.568 70.6382 107.479 70.5785C107.33 70.5189 107.24 70.3399 107.181 70.0118C107.061 69.4748 107.061 68.043 107.21 65.6865L107.389 62.9123C107.449 61.6296 107.539 60.3768 107.658 59.2432C107.777 57.9904 107.956 56.4691 108.195 54.6196C108.374 53.2176 108.523 52.0543 108.642 51.1295L108.732 50.5329C108.941 49.1011 109.179 47.6693 109.448 46.1181L109.925 43.6124C109.179 45.1039 108.493 46.5358 107.897 47.8781C107.837 47.9974 107.807 48.0869 107.837 48.2062C107.837 48.3255 107.956 48.4449 108.075 48.5642C108.344 48.8028 108.523 49.1011 108.612 49.4292C108.702 49.7574 108.612 50.1153 108.463 50.4434C108.433 50.5031 108.404 50.5329 108.374 50.5926C108.314 50.7119 108.195 50.7716 108.075 50.7716C107.897 50.7119 107.837 50.5926 107.837 50.4434C107.837 50.3838 107.837 50.354 107.837 50.3241C107.837 50.0855 107.837 49.9363 107.777 49.817C107.747 49.638 107.658 49.4889 107.509 49.3099C107.509 49.3099 107.449 49.2503 107.36 49.1608C107.33 49.1309 107.3 49.1011 107.3 49.1011C107.3 49.1011 107.27 49.1608 107.181 49.3398C106.524 50.7418 105.838 52.0841 105.152 53.3071C104.198 55.1267 103.154 56.7972 102.139 58.2887C101.394 59.3327 100.708 60.168 100.021 60.7646C99.3354 61.3611 98.6195 61.7788 97.8737 61.9279C97.4561 62.0174 97.0683 62.0472 96.7104 62.0174C96.0243 61.9577 95.5768 61.4805 95.368 60.5856C95.2487 60.1083 95.2189 59.5714 95.2785 58.9748C95.3382 58.3782 95.4575 57.8114 95.6365 57.2446C96.8595 53.7247 98.9178 51.0102 101.841 49.1906C102.855 48.5642 103.81 48.1466 104.615 47.9378C105.152 47.8184 105.629 47.7588 106.047 47.7886C106.047 47.7886 106.107 47.7886 106.226 47.7886C106.345 47.7886 106.465 47.6395 106.554 47.4008L108.135 44.0002L111.178 37.4675C111.416 36.9007 111.655 36.155 111.834 35.2899L112.013 34.574C112.669 32.0683 113.326 30.0399 113.922 28.5782L114.37 27.4745C114.668 26.699 114.907 26.162 115.086 25.8936C115.294 25.5654 115.533 25.3864 115.831 25.3864C116.398 25.3268 116.577 25.5654 116.607 25.7742C116.637 25.8936 116.607 26.0427 116.607 26.2217C116.547 26.6691 116.398 27.2359 116.189 27.9518L115.98 28.6379C115.742 29.503 115.384 30.6067 114.907 31.9788L114.638 32.7544C114.638 32.7544 114.549 33.0229 114.071 34.1564L113.624 35.2601C113.564 35.4391 113.385 35.8865 113.117 36.5726C112.848 37.2289 112.669 37.8851 112.52 38.4519C112.192 39.7942 111.864 41.2559 111.506 42.9263C111.178 44.4775 110.909 45.9093 110.73 47.1622C110.313 49.7872 110.044 51.6665 109.895 52.9492L109.448 56.4392C109.09 59.6907 108.821 62.1665 108.672 63.9862C108.523 65.8654 108.523 67.0885 108.672 67.7149C108.732 67.9535 108.791 68.0132 108.821 68.0132C109.03 68.1027 109.09 68.2817 109.09 68.3413C109.09 68.4606 109.12 68.6396 109.12 68.8186C109.12 69.3555 109.03 69.7731 108.881 70.0714C108.732 70.3996 108.493 70.5785 108.165 70.6382C108.105 70.6382 108.016 70.6382 107.956 70.6382H107.897ZM109.985 43.165C109.985 43.165 110.164 43.1948 110.223 43.4036C110.223 43.5229 110.223 43.5826 110.223 43.6721L109.746 46.1778C109.478 47.6991 109.239 49.1608 109.03 50.5628L108.941 51.1594C108.821 52.0841 108.672 53.2474 108.493 54.6494C108.254 56.4989 108.075 57.9904 107.956 59.2432C107.837 60.3768 107.747 61.6296 107.688 62.9123L107.509 65.6865C107.36 67.9834 107.36 69.4152 107.479 69.9223C107.539 70.2206 107.628 70.2803 107.628 70.2803C107.658 70.2803 107.777 70.3399 108.075 70.3101C108.284 70.2802 108.463 70.1609 108.583 69.9223C108.702 69.6837 108.762 69.2959 108.791 68.7888C108.791 68.6098 108.791 68.4606 108.791 68.401C108.791 68.3115 108.762 68.3115 108.732 68.3115C108.493 68.2817 108.404 67.9237 108.374 67.8044C108.225 67.178 108.225 65.9251 108.374 64.016C108.523 62.1666 108.791 59.6907 109.149 56.4392L109.597 52.9492C109.746 51.6665 110.014 49.7574 110.432 47.1323C110.641 45.8795 110.909 44.4477 111.237 42.8965C111.595 41.1962 111.924 39.7346 112.252 38.4221C112.371 37.8255 112.58 37.1692 112.848 36.5129C113.117 35.8269 113.266 35.4092 113.355 35.2004L113.803 34.0669C114.22 33.0229 114.34 32.7544 114.34 32.6947L114.608 31.9192C115.085 30.547 115.414 29.4731 115.652 28.5782L115.861 27.8921C116.07 27.2061 116.219 26.6393 116.279 26.1918C116.309 26.0427 116.309 25.9532 116.279 25.8637C116.279 25.8339 116.249 25.7146 115.951 25.7146C115.921 25.7146 115.861 25.7146 115.801 25.7146C115.593 25.7146 115.443 25.8339 115.294 26.0725C115.115 26.341 114.907 26.8779 114.608 27.6237L114.161 28.7274C113.564 30.189 112.908 32.2175 112.252 34.6933L112.073 35.4092C111.864 36.3041 111.655 37.0499 111.387 37.6465L106.763 47.5798C106.614 47.9079 106.465 48.0869 106.226 48.1167C106.107 48.1167 105.987 48.1466 105.928 48.1167C105.57 48.1167 105.122 48.1466 104.615 48.2659C103.84 48.4449 102.945 48.8326 101.931 49.4591C99.0967 51.2489 97.0385 53.9037 95.8453 57.364C95.6663 57.9009 95.547 58.4378 95.4873 59.0046C95.4575 59.6012 95.4873 60.0785 95.5768 60.5259C95.7558 61.2717 96.1138 61.6594 96.6507 61.7191C96.9788 61.7489 97.3368 61.7191 97.7246 61.6296C98.4107 61.4805 99.0967 61.0927 99.7232 60.5259C100.379 59.9293 101.066 59.1239 101.781 58.0799C102.825 56.6182 103.84 54.9477 104.794 53.1281C105.48 51.9051 106.166 50.5628 106.823 49.1608C106.942 48.9221 107.031 48.8028 107.151 48.773C107.27 48.7432 107.389 48.773 107.509 48.9221C107.598 49.0116 107.628 49.0713 107.628 49.0713C107.837 49.3099 107.926 49.5187 107.986 49.7275C108.016 49.8469 108.046 50.0557 108.046 50.2645C108.046 50.2943 108.046 50.354 108.046 50.4136C108.046 50.4136 108.076 50.3241 108.105 50.2943C108.254 49.996 108.284 49.7275 108.225 49.4591C108.165 49.1906 108.016 48.952 107.777 48.7432C107.598 48.5642 107.509 48.415 107.479 48.236C107.449 48.0272 107.479 47.8781 107.568 47.6991C108.165 46.3866 108.851 44.9249 109.597 43.4633C109.656 43.2843 109.776 43.165 109.865 43.1352C109.865 43.1352 109.865 43.1352 109.925 43.1352L109.985 43.165ZM97.307 61.1523C96.9192 61.1523 96.7104 60.9137 96.591 60.6751C96.5016 60.4364 96.4419 60.2873 96.4121 60.1381C96.3226 59.7802 96.3226 59.3626 96.4121 58.9449C96.8595 56.5884 98.0229 54.3213 99.9022 52.2034C100.558 51.4577 101.185 50.8611 101.781 50.4434C102.318 50.0557 102.945 49.6679 103.601 49.3099C104.257 48.952 104.794 48.7133 105.212 48.6238C105.6 48.5343 105.838 48.594 105.987 48.7432C106.107 48.9221 106.077 49.1011 106.017 49.1906C105.958 49.2801 105.928 49.3696 105.898 49.3994C105.48 50.354 104.973 51.398 104.406 52.3824C103.899 53.3071 103.512 53.9932 103.392 54.202C102.169 56.4691 100.827 58.3782 99.395 59.8697C98.709 60.5856 98.1124 61.0032 97.5456 61.1225C97.4561 61.1225 97.3666 61.1523 97.2771 61.1523H97.307ZM105.57 48.8625C105.57 48.8625 105.421 48.8625 105.272 48.8923C104.884 48.9818 104.377 49.1906 103.75 49.5486C103.094 49.9065 102.497 50.2943 101.96 50.6821C101.394 51.0699 100.767 51.6665 100.111 52.3824C98.2615 54.4705 97.0981 56.6779 96.6805 58.9748C96.591 59.3924 96.591 59.7503 96.6805 60.0486C96.6805 60.168 96.77 60.3171 96.8595 60.5259C96.9788 60.7944 97.1876 60.8839 97.5158 60.7944C98.0229 60.6751 98.5896 60.2873 99.2161 59.631C100.618 58.1694 101.96 56.2603 103.154 54.023C103.273 53.8142 103.661 53.1281 104.168 52.2034C104.705 51.1892 105.212 50.175 105.659 49.1906C105.689 49.1309 105.719 49.1011 105.749 49.0116C105.749 49.0116 105.749 48.952 105.749 48.8923C105.749 48.8923 105.689 48.8625 105.57 48.8625Z" fill="#231F20"/>
<path d="M63.6296 92.2948C63.3313 90.1172 64.256 87.8501 65.837 86.5078C67.4179 85.1654 69.6253 84.8373 71.5344 85.4339C72.0714 85.6129 72.6083 85.8515 73.0856 86.2393C73.6225 86.6868 74.0103 87.3132 74.3086 87.9694C75.2632 90.2067 74.9649 93.0107 73.5629 94.9198C70.6992 98.8275 64.3753 97.515 63.6296 92.2948Z" fill="#231F20"/>
</svg>
